<mxfile host="Electron" agent="Mozilla/5.0 (Windows NT 10.0; Win64; x64) AppleWebKit/537.36 (KHTML, like Gecko) draw.io/24.7.17 Chrome/128.0.6613.36 Electron/32.0.1 Safari/537.36" version="24.7.17" pages="2">
  <diagram name="ER" id="0ldHL582HzP4e9eKfopH">
    <mxGraphModel dx="1877" dy="1886" grid="1" gridSize="10" guides="1" tooltips="1" connect="1" arrows="0" fold="1" page="1" pageScale="1" pageWidth="827" pageHeight="1169" math="0" shadow="0">
      <root>
        <mxCell id="0" />
        <mxCell id="1" parent="0" />
        <mxCell id="ZkQXQhBP3V9jxNkfpGBP-2" style="edgeStyle=orthogonalEdgeStyle;rounded=0;orthogonalLoop=1;jettySize=auto;html=1;exitX=0;exitY=0.5;exitDx=0;exitDy=0;entryX=0.5;entryY=1;entryDx=0;entryDy=0;startArrow=doubleBlock;startFill=1;endArrow=none;endFill=0;" edge="1" parent="1" source="BMlkPkJxhUuCtmtdSr2p-1" target="ZkQXQhBP3V9jxNkfpGBP-1">
          <mxGeometry relative="1" as="geometry" />
        </mxCell>
        <mxCell id="BMlkPkJxhUuCtmtdSr2p-1" value="Tanuló" style="rounded=0;whiteSpace=wrap;html=1;" parent="1" vertex="1">
          <mxGeometry x="130" y="280" width="120" height="60" as="geometry" />
        </mxCell>
        <mxCell id="BMlkPkJxhUuCtmtdSr2p-3" value="Telefon szám" style="ellipse;shape=doubleEllipse;whiteSpace=wrap;html=1;fillColor=#dae8fc;strokeColor=#6c8ebf;" parent="1" vertex="1">
          <mxGeometry x="257" y="-240" width="120" height="60" as="geometry" />
        </mxCell>
        <mxCell id="BMlkPkJxhUuCtmtdSr2p-7" value="Tanulo_Id" style="ellipse;whiteSpace=wrap;html=1;fontStyle=4" parent="1" vertex="1">
          <mxGeometry x="54" y="410" width="120" height="60" as="geometry" />
        </mxCell>
        <mxCell id="BMlkPkJxhUuCtmtdSr2p-8" value="Név" style="ellipse;whiteSpace=wrap;html=1;" parent="1" vertex="1">
          <mxGeometry x="215.5" y="410" width="120" height="60" as="geometry" />
        </mxCell>
        <mxCell id="BMlkPkJxhUuCtmtdSr2p-11" value="" style="endArrow=none;html=1;rounded=0;exitX=0.5;exitY=0;exitDx=0;exitDy=0;entryX=0.5;entryY=1;entryDx=0;entryDy=0;" parent="1" source="BMlkPkJxhUuCtmtdSr2p-7" target="BMlkPkJxhUuCtmtdSr2p-1" edge="1">
          <mxGeometry width="50" height="50" relative="1" as="geometry">
            <mxPoint x="-40" y="320" as="sourcePoint" />
            <mxPoint x="10" y="270" as="targetPoint" />
          </mxGeometry>
        </mxCell>
        <mxCell id="BMlkPkJxhUuCtmtdSr2p-12" value="" style="endArrow=none;html=1;rounded=0;exitX=0.5;exitY=0;exitDx=0;exitDy=0;entryX=0.5;entryY=1;entryDx=0;entryDy=0;" parent="1" source="BMlkPkJxhUuCtmtdSr2p-8" target="BMlkPkJxhUuCtmtdSr2p-1" edge="1">
          <mxGeometry width="50" height="50" relative="1" as="geometry">
            <mxPoint x="20" y="410" as="sourcePoint" />
            <mxPoint x="200" y="350" as="targetPoint" />
          </mxGeometry>
        </mxCell>
        <mxCell id="BMlkPkJxhUuCtmtdSr2p-18" value="Tanul" style="rhombus;whiteSpace=wrap;html=1;" parent="1" vertex="1">
          <mxGeometry x="380" y="280" width="120" height="60" as="geometry" />
        </mxCell>
        <mxCell id="BMlkPkJxhUuCtmtdSr2p-19" value="Iskola" style="rounded=0;whiteSpace=wrap;html=1;" parent="1" vertex="1">
          <mxGeometry x="740" y="280" width="120" height="60" as="geometry" />
        </mxCell>
        <mxCell id="BMlkPkJxhUuCtmtdSr2p-20" value="Osztály" style="ellipse;whiteSpace=wrap;html=1;" parent="1" vertex="1">
          <mxGeometry x="380" y="190" width="120" height="60" as="geometry" />
        </mxCell>
        <mxCell id="BMlkPkJxhUuCtmtdSr2p-21" value="Iskola_Id" style="ellipse;whiteSpace=wrap;html=1;fontStyle=4" parent="1" vertex="1">
          <mxGeometry x="540" y="410" width="120" height="60" as="geometry" />
        </mxCell>
        <mxCell id="BMlkPkJxhUuCtmtdSr2p-22" value="Név" style="ellipse;whiteSpace=wrap;html=1;" parent="1" vertex="1">
          <mxGeometry x="680" y="410" width="120" height="60" as="geometry" />
        </mxCell>
        <mxCell id="BMlkPkJxhUuCtmtdSr2p-23" value="Cím" style="ellipse;whiteSpace=wrap;html=1;" parent="1" vertex="1">
          <mxGeometry x="820" y="410" width="120" height="60" as="geometry" />
        </mxCell>
        <mxCell id="BMlkPkJxhUuCtmtdSr2p-24" value="Tanulók száma" style="ellipse;whiteSpace=wrap;html=1;" parent="1" vertex="1">
          <mxGeometry x="960" y="410" width="120" height="60" as="geometry" />
        </mxCell>
        <mxCell id="BMlkPkJxhUuCtmtdSr2p-25" value="" style="endArrow=none;html=1;rounded=0;exitX=1;exitY=0.5;exitDx=0;exitDy=0;entryX=0;entryY=0.5;entryDx=0;entryDy=0;endFill=0;startArrow=doubleBlock;startFill=1;" parent="1" source="BMlkPkJxhUuCtmtdSr2p-1" target="BMlkPkJxhUuCtmtdSr2p-18" edge="1">
          <mxGeometry width="50" height="50" relative="1" as="geometry">
            <mxPoint x="200" y="180" as="sourcePoint" />
            <mxPoint x="200" y="130" as="targetPoint" />
            <mxPoint as="offset" />
          </mxGeometry>
        </mxCell>
        <mxCell id="BMlkPkJxhUuCtmtdSr2p-26" value="" style="endArrow=none;html=1;rounded=0;exitX=0;exitY=0.5;exitDx=0;exitDy=0;entryX=1;entryY=0.5;entryDx=0;entryDy=0;endFill=0;startArrow=classic;startFill=1;" parent="1" source="BMlkPkJxhUuCtmtdSr2p-19" target="BMlkPkJxhUuCtmtdSr2p-18" edge="1">
          <mxGeometry width="50" height="50" relative="1" as="geometry">
            <mxPoint x="380" y="410" as="sourcePoint" />
            <mxPoint x="200" y="350" as="targetPoint" />
          </mxGeometry>
        </mxCell>
        <mxCell id="BMlkPkJxhUuCtmtdSr2p-27" value="" style="endArrow=none;html=1;rounded=0;exitX=0.5;exitY=0;exitDx=0;exitDy=0;entryX=0.5;entryY=1;entryDx=0;entryDy=0;" parent="1" source="BMlkPkJxhUuCtmtdSr2p-18" target="BMlkPkJxhUuCtmtdSr2p-20" edge="1">
          <mxGeometry width="50" height="50" relative="1" as="geometry">
            <mxPoint x="750" y="320" as="sourcePoint" />
            <mxPoint x="510" y="320" as="targetPoint" />
          </mxGeometry>
        </mxCell>
        <mxCell id="BMlkPkJxhUuCtmtdSr2p-28" value="" style="endArrow=none;html=1;rounded=0;exitX=0.5;exitY=0;exitDx=0;exitDy=0;entryX=0.5;entryY=1;entryDx=0;entryDy=0;" parent="1" source="BMlkPkJxhUuCtmtdSr2p-21" target="BMlkPkJxhUuCtmtdSr2p-19" edge="1">
          <mxGeometry width="50" height="50" relative="1" as="geometry">
            <mxPoint x="450" y="290" as="sourcePoint" />
            <mxPoint x="450" y="260" as="targetPoint" />
          </mxGeometry>
        </mxCell>
        <mxCell id="BMlkPkJxhUuCtmtdSr2p-29" value="" style="endArrow=none;html=1;rounded=0;exitX=0.5;exitY=0;exitDx=0;exitDy=0;entryX=0.5;entryY=1;entryDx=0;entryDy=0;" parent="1" source="BMlkPkJxhUuCtmtdSr2p-22" target="BMlkPkJxhUuCtmtdSr2p-19" edge="1">
          <mxGeometry width="50" height="50" relative="1" as="geometry">
            <mxPoint x="620" y="410" as="sourcePoint" />
            <mxPoint x="810" y="350" as="targetPoint" />
          </mxGeometry>
        </mxCell>
        <mxCell id="BMlkPkJxhUuCtmtdSr2p-30" value="" style="endArrow=none;html=1;rounded=0;exitX=0.5;exitY=0;exitDx=0;exitDy=0;entryX=0.5;entryY=1;entryDx=0;entryDy=0;" parent="1" source="BMlkPkJxhUuCtmtdSr2p-23" target="BMlkPkJxhUuCtmtdSr2p-19" edge="1">
          <mxGeometry width="50" height="50" relative="1" as="geometry">
            <mxPoint x="750" y="410" as="sourcePoint" />
            <mxPoint x="810" y="350" as="targetPoint" />
          </mxGeometry>
        </mxCell>
        <mxCell id="BMlkPkJxhUuCtmtdSr2p-31" value="" style="endArrow=none;html=1;rounded=0;exitX=0.5;exitY=0;exitDx=0;exitDy=0;entryX=0.5;entryY=1;entryDx=0;entryDy=0;" parent="1" source="BMlkPkJxhUuCtmtdSr2p-24" target="BMlkPkJxhUuCtmtdSr2p-19" edge="1">
          <mxGeometry width="50" height="50" relative="1" as="geometry">
            <mxPoint x="880" y="410" as="sourcePoint" />
            <mxPoint x="810" y="350" as="targetPoint" />
          </mxGeometry>
        </mxCell>
        <mxCell id="BMlkPkJxhUuCtmtdSr2p-32" value="Tanár" style="rounded=0;whiteSpace=wrap;html=1;" parent="1" vertex="1">
          <mxGeometry x="327" y="-130" width="120" height="60" as="geometry" />
        </mxCell>
        <mxCell id="BMlkPkJxhUuCtmtdSr2p-33" value="Dolgozó" style="rounded=0;whiteSpace=wrap;html=1;" parent="1" vertex="1">
          <mxGeometry x="1300" y="280" width="120" height="60" as="geometry" />
        </mxCell>
        <mxCell id="BMlkPkJxhUuCtmtdSr2p-34" value="Oktat" style="rhombus;whiteSpace=wrap;html=1;" parent="1" vertex="1">
          <mxGeometry x="327" y="-10" width="120" height="60" as="geometry" />
        </mxCell>
        <mxCell id="BMlkPkJxhUuCtmtdSr2p-35" value="Tanar_Id" style="ellipse;whiteSpace=wrap;html=1;fontStyle=4" parent="1" vertex="1">
          <mxGeometry x="-43" y="-240" width="120" height="60" as="geometry" />
        </mxCell>
        <mxCell id="BMlkPkJxhUuCtmtdSr2p-36" value="Név" style="ellipse;whiteSpace=wrap;html=1;fontStyle=0" parent="1" vertex="1">
          <mxGeometry x="107" y="-240" width="120" height="60" as="geometry" />
        </mxCell>
        <mxCell id="BMlkPkJxhUuCtmtdSr2p-37" value="Diákok száma" style="ellipse;whiteSpace=wrap;html=1;fontStyle=0;dashed=1;" parent="1" vertex="1">
          <mxGeometry x="407" y="-240" width="120" height="60" as="geometry" />
        </mxCell>
        <mxCell id="BMlkPkJxhUuCtmtdSr2p-38" value="Fizetés" style="ellipse;whiteSpace=wrap;html=1;fontStyle=0" parent="1" vertex="1">
          <mxGeometry x="557" y="-240" width="120" height="60" as="geometry" />
        </mxCell>
        <mxCell id="BMlkPkJxhUuCtmtdSr2p-40" value="Szak" style="ellipse;shape=doubleEllipse;whiteSpace=wrap;html=1;fillColor=#dae8fc;strokeColor=#6c8ebf;" parent="1" vertex="1">
          <mxGeometry x="707" y="-240" width="120" height="60" as="geometry" />
        </mxCell>
        <mxCell id="BMlkPkJxhUuCtmtdSr2p-42" value="" style="endArrow=none;html=1;rounded=0;exitX=0.5;exitY=0;exitDx=0;exitDy=0;entryX=0.5;entryY=1;entryDx=0;entryDy=0;startArrow=doubleBlock;startFill=1;" parent="1" source="BMlkPkJxhUuCtmtdSr2p-19" target="BMlkPkJxhUuCtmtdSr2p-34" edge="1">
          <mxGeometry width="50" height="50" relative="1" as="geometry">
            <mxPoint x="450" y="290" as="sourcePoint" />
            <mxPoint x="450" y="260" as="targetPoint" />
            <Array as="points">
              <mxPoint x="800" y="120" />
              <mxPoint x="387" y="120" />
            </Array>
          </mxGeometry>
        </mxCell>
        <mxCell id="BMlkPkJxhUuCtmtdSr2p-43" value="" style="endArrow=doubleBlock;html=1;rounded=0;exitX=0.5;exitY=0;exitDx=0;exitDy=0;entryX=0.5;entryY=1;entryDx=0;entryDy=0;startArrow=none;startFill=0;endFill=1;" parent="1" source="BMlkPkJxhUuCtmtdSr2p-34" target="BMlkPkJxhUuCtmtdSr2p-32" edge="1">
          <mxGeometry width="50" height="50" relative="1" as="geometry">
            <mxPoint x="387.00000000000045" y="-20" as="sourcePoint" />
            <mxPoint x="397" y="50" as="targetPoint" />
          </mxGeometry>
        </mxCell>
        <mxCell id="BMlkPkJxhUuCtmtdSr2p-44" value="" style="endArrow=none;html=1;rounded=0;exitX=0.5;exitY=0;exitDx=0;exitDy=0;entryX=0.5;entryY=1;entryDx=0;entryDy=0;" parent="1" source="BMlkPkJxhUuCtmtdSr2p-32" target="BMlkPkJxhUuCtmtdSr2p-35" edge="1">
          <mxGeometry width="50" height="50" relative="1" as="geometry">
            <mxPoint x="37" y="100" as="sourcePoint" />
            <mxPoint x="37" y="70" as="targetPoint" />
          </mxGeometry>
        </mxCell>
        <mxCell id="BMlkPkJxhUuCtmtdSr2p-45" value="" style="endArrow=none;html=1;rounded=0;exitX=0.5;exitY=0;exitDx=0;exitDy=0;entryX=0.5;entryY=1;entryDx=0;entryDy=0;" parent="1" source="BMlkPkJxhUuCtmtdSr2p-32" target="BMlkPkJxhUuCtmtdSr2p-36" edge="1">
          <mxGeometry width="50" height="50" relative="1" as="geometry">
            <mxPoint x="397" y="-120" as="sourcePoint" />
            <mxPoint x="27" y="-170" as="targetPoint" />
          </mxGeometry>
        </mxCell>
        <mxCell id="BMlkPkJxhUuCtmtdSr2p-46" value="" style="endArrow=none;html=1;rounded=0;exitX=0.5;exitY=0;exitDx=0;exitDy=0;entryX=0.5;entryY=1;entryDx=0;entryDy=0;" parent="1" source="BMlkPkJxhUuCtmtdSr2p-32" target="BMlkPkJxhUuCtmtdSr2p-3" edge="1">
          <mxGeometry width="50" height="50" relative="1" as="geometry">
            <mxPoint x="397" y="-120" as="sourcePoint" />
            <mxPoint x="177" y="-170" as="targetPoint" />
          </mxGeometry>
        </mxCell>
        <mxCell id="BMlkPkJxhUuCtmtdSr2p-47" value="" style="endArrow=none;html=1;rounded=0;exitX=0.5;exitY=0;exitDx=0;exitDy=0;entryX=0.5;entryY=1;entryDx=0;entryDy=0;" parent="1" source="BMlkPkJxhUuCtmtdSr2p-32" target="BMlkPkJxhUuCtmtdSr2p-37" edge="1">
          <mxGeometry width="50" height="50" relative="1" as="geometry">
            <mxPoint x="397" y="-120" as="sourcePoint" />
            <mxPoint x="327" y="-170" as="targetPoint" />
          </mxGeometry>
        </mxCell>
        <mxCell id="BMlkPkJxhUuCtmtdSr2p-48" value="" style="endArrow=none;html=1;rounded=0;exitX=0.5;exitY=0;exitDx=0;exitDy=0;entryX=0.5;entryY=1;entryDx=0;entryDy=0;" parent="1" source="BMlkPkJxhUuCtmtdSr2p-32" target="BMlkPkJxhUuCtmtdSr2p-38" edge="1">
          <mxGeometry width="50" height="50" relative="1" as="geometry">
            <mxPoint x="397" y="-120" as="sourcePoint" />
            <mxPoint x="477" y="-170" as="targetPoint" />
          </mxGeometry>
        </mxCell>
        <mxCell id="BMlkPkJxhUuCtmtdSr2p-49" value="" style="endArrow=none;html=1;rounded=0;exitX=0.5;exitY=0;exitDx=0;exitDy=0;entryX=0.5;entryY=1;entryDx=0;entryDy=0;" parent="1" source="BMlkPkJxhUuCtmtdSr2p-32" target="BMlkPkJxhUuCtmtdSr2p-40" edge="1">
          <mxGeometry width="50" height="50" relative="1" as="geometry">
            <mxPoint x="397" y="-120" as="sourcePoint" />
            <mxPoint x="627" y="-170" as="targetPoint" />
          </mxGeometry>
        </mxCell>
        <mxCell id="BMlkPkJxhUuCtmtdSr2p-50" value="Dolgozik" style="rhombus;whiteSpace=wrap;html=1;" parent="1" vertex="1">
          <mxGeometry x="1060" y="280" width="120" height="60" as="geometry" />
        </mxCell>
        <mxCell id="BMlkPkJxhUuCtmtdSr2p-51" value="" style="endArrow=classic;html=1;rounded=0;exitX=0;exitY=0.5;exitDx=0;exitDy=0;entryX=1;entryY=0.5;entryDx=0;entryDy=0;startArrow=none;startFill=0;endFill=1;" parent="1" source="BMlkPkJxhUuCtmtdSr2p-50" target="BMlkPkJxhUuCtmtdSr2p-19" edge="1">
          <mxGeometry width="50" height="50" relative="1" as="geometry">
            <mxPoint x="750" y="320" as="sourcePoint" />
            <mxPoint x="510" y="320" as="targetPoint" />
          </mxGeometry>
        </mxCell>
        <mxCell id="BMlkPkJxhUuCtmtdSr2p-52" value="" style="endArrow=doubleBlock;html=1;rounded=0;exitX=1;exitY=0.5;exitDx=0;exitDy=0;entryX=0;entryY=0.5;entryDx=0;entryDy=0;startArrow=none;startFill=0;endFill=1;" parent="1" source="BMlkPkJxhUuCtmtdSr2p-50" target="BMlkPkJxhUuCtmtdSr2p-33" edge="1">
          <mxGeometry width="50" height="50" relative="1" as="geometry">
            <mxPoint x="260" y="320" as="sourcePoint" />
            <mxPoint x="390" y="320" as="targetPoint" />
            <mxPoint as="offset" />
          </mxGeometry>
        </mxCell>
        <mxCell id="BMlkPkJxhUuCtmtdSr2p-53" value="Dolgozo_Id" style="ellipse;whiteSpace=wrap;html=1;fontStyle=4" parent="1" vertex="1">
          <mxGeometry x="1110" y="410" width="120" height="60" as="geometry" />
        </mxCell>
        <mxCell id="BMlkPkJxhUuCtmtdSr2p-54" value="Név" style="ellipse;whiteSpace=wrap;html=1;" parent="1" vertex="1">
          <mxGeometry x="1240" y="410" width="120" height="60" as="geometry" />
        </mxCell>
        <mxCell id="BMlkPkJxhUuCtmtdSr2p-55" value="Fizetés" style="ellipse;whiteSpace=wrap;html=1;" parent="1" vertex="1">
          <mxGeometry x="1370" y="410" width="120" height="60" as="geometry" />
        </mxCell>
        <mxCell id="BMlkPkJxhUuCtmtdSr2p-56" value="Pozíció" style="ellipse;whiteSpace=wrap;html=1;" parent="1" vertex="1">
          <mxGeometry x="1500" y="410" width="120" height="60" as="geometry" />
        </mxCell>
        <mxCell id="BMlkPkJxhUuCtmtdSr2p-60" value="" style="endArrow=none;html=1;rounded=0;exitX=0.5;exitY=0;exitDx=0;exitDy=0;entryX=0.5;entryY=1;entryDx=0;entryDy=0;" parent="1" source="BMlkPkJxhUuCtmtdSr2p-53" target="BMlkPkJxhUuCtmtdSr2p-33" edge="1">
          <mxGeometry width="50" height="50" relative="1" as="geometry">
            <mxPoint x="1010" y="410" as="sourcePoint" />
            <mxPoint x="810" y="350" as="targetPoint" />
          </mxGeometry>
        </mxCell>
        <mxCell id="BMlkPkJxhUuCtmtdSr2p-61" value="" style="endArrow=none;html=1;rounded=0;exitX=0.5;exitY=0;exitDx=0;exitDy=0;entryX=0.5;entryY=1;entryDx=0;entryDy=0;" parent="1" source="BMlkPkJxhUuCtmtdSr2p-54" target="BMlkPkJxhUuCtmtdSr2p-33" edge="1">
          <mxGeometry width="50" height="50" relative="1" as="geometry">
            <mxPoint x="1190" y="410" as="sourcePoint" />
            <mxPoint x="1370" y="350" as="targetPoint" />
          </mxGeometry>
        </mxCell>
        <mxCell id="BMlkPkJxhUuCtmtdSr2p-62" value="" style="endArrow=none;html=1;rounded=0;exitX=0.5;exitY=0;exitDx=0;exitDy=0;entryX=0.5;entryY=1;entryDx=0;entryDy=0;" parent="1" source="BMlkPkJxhUuCtmtdSr2p-55" target="BMlkPkJxhUuCtmtdSr2p-33" edge="1">
          <mxGeometry width="50" height="50" relative="1" as="geometry">
            <mxPoint x="1320" y="410" as="sourcePoint" />
            <mxPoint x="1370" y="350" as="targetPoint" />
          </mxGeometry>
        </mxCell>
        <mxCell id="BMlkPkJxhUuCtmtdSr2p-63" value="" style="endArrow=none;html=1;rounded=0;exitX=0.5;exitY=0;exitDx=0;exitDy=0;entryX=0.5;entryY=1;entryDx=0;entryDy=0;" parent="1" source="BMlkPkJxhUuCtmtdSr2p-56" target="BMlkPkJxhUuCtmtdSr2p-33" edge="1">
          <mxGeometry width="50" height="50" relative="1" as="geometry">
            <mxPoint x="1450" y="410" as="sourcePoint" />
            <mxPoint x="1370" y="350" as="targetPoint" />
          </mxGeometry>
        </mxCell>
        <mxCell id="BMlkPkJxhUuCtmtdSr2p-64" value="Vezetéknév" style="ellipse;whiteSpace=wrap;html=1;" parent="1" vertex="1">
          <mxGeometry x="148" y="530" width="120" height="60" as="geometry" />
        </mxCell>
        <mxCell id="BMlkPkJxhUuCtmtdSr2p-65" value="Keresztnév" style="ellipse;whiteSpace=wrap;html=1;" parent="1" vertex="1">
          <mxGeometry x="287" y="530" width="120" height="60" as="geometry" />
        </mxCell>
        <mxCell id="BMlkPkJxhUuCtmtdSr2p-66" value="" style="endArrow=none;html=1;rounded=0;exitX=0.5;exitY=0;exitDx=0;exitDy=0;entryX=0.5;entryY=1;entryDx=0;entryDy=0;" parent="1" source="BMlkPkJxhUuCtmtdSr2p-64" target="BMlkPkJxhUuCtmtdSr2p-8" edge="1">
          <mxGeometry width="50" height="50" relative="1" as="geometry">
            <mxPoint x="120" y="410" as="sourcePoint" />
            <mxPoint x="200" y="480" as="targetPoint" />
          </mxGeometry>
        </mxCell>
        <mxCell id="BMlkPkJxhUuCtmtdSr2p-67" value="" style="endArrow=none;html=1;rounded=0;exitX=0.5;exitY=0;exitDx=0;exitDy=0;entryX=0.5;entryY=1;entryDx=0;entryDy=0;" parent="1" source="BMlkPkJxhUuCtmtdSr2p-65" target="BMlkPkJxhUuCtmtdSr2p-8" edge="1">
          <mxGeometry width="50" height="50" relative="1" as="geometry">
            <mxPoint x="210" y="540" as="sourcePoint" />
            <mxPoint x="380" y="490" as="targetPoint" />
          </mxGeometry>
        </mxCell>
        <mxCell id="BMlkPkJxhUuCtmtdSr2p-72" value="Vezetéknév" style="ellipse;whiteSpace=wrap;html=1;" parent="1" vertex="1">
          <mxGeometry x="1173" y="530" width="120" height="60" as="geometry" />
        </mxCell>
        <mxCell id="BMlkPkJxhUuCtmtdSr2p-73" value="Keresztnév" style="ellipse;whiteSpace=wrap;html=1;" parent="1" vertex="1">
          <mxGeometry x="1313" y="530" width="120" height="60" as="geometry" />
        </mxCell>
        <mxCell id="BMlkPkJxhUuCtmtdSr2p-74" value="" style="endArrow=none;html=1;rounded=0;exitX=0.5;exitY=0;exitDx=0;exitDy=0;entryX=0.5;entryY=1;entryDx=0;entryDy=0;" parent="1" source="BMlkPkJxhUuCtmtdSr2p-72" target="BMlkPkJxhUuCtmtdSr2p-54" edge="1">
          <mxGeometry width="50" height="50" relative="1" as="geometry">
            <mxPoint x="1120" y="410" as="sourcePoint" />
            <mxPoint x="1200" y="480" as="targetPoint" />
          </mxGeometry>
        </mxCell>
        <mxCell id="BMlkPkJxhUuCtmtdSr2p-75" value="" style="endArrow=none;html=1;rounded=0;exitX=0.5;exitY=0;exitDx=0;exitDy=0;entryX=0.5;entryY=1;entryDx=0;entryDy=0;" parent="1" source="BMlkPkJxhUuCtmtdSr2p-73" target="BMlkPkJxhUuCtmtdSr2p-54" edge="1">
          <mxGeometry width="50" height="50" relative="1" as="geometry">
            <mxPoint x="1210" y="540" as="sourcePoint" />
            <mxPoint x="1380" y="490" as="targetPoint" />
          </mxGeometry>
        </mxCell>
        <mxCell id="BMlkPkJxhUuCtmtdSr2p-76" value="Vezetéknév" style="ellipse;whiteSpace=wrap;html=1;" parent="1" vertex="1">
          <mxGeometry x="48" y="-380" width="120" height="60" as="geometry" />
        </mxCell>
        <mxCell id="BMlkPkJxhUuCtmtdSr2p-77" value="Keresztnév" style="ellipse;whiteSpace=wrap;html=1;" parent="1" vertex="1">
          <mxGeometry x="193" y="-380" width="120" height="60" as="geometry" />
        </mxCell>
        <mxCell id="BMlkPkJxhUuCtmtdSr2p-78" value="" style="endArrow=none;html=1;rounded=0;exitX=0.5;exitY=1;exitDx=0;exitDy=0;entryX=0.5;entryY=0;entryDx=0;entryDy=0;" parent="1" source="BMlkPkJxhUuCtmtdSr2p-76" target="BMlkPkJxhUuCtmtdSr2p-36" edge="1">
          <mxGeometry width="50" height="50" relative="1" as="geometry">
            <mxPoint x="22" y="-490" as="sourcePoint" />
            <mxPoint x="102" y="-270" as="targetPoint" />
          </mxGeometry>
        </mxCell>
        <mxCell id="BMlkPkJxhUuCtmtdSr2p-79" value="" style="endArrow=none;html=1;rounded=0;exitX=0.5;exitY=1;exitDx=0;exitDy=0;entryX=0.5;entryY=0;entryDx=0;entryDy=0;" parent="1" source="BMlkPkJxhUuCtmtdSr2p-77" target="BMlkPkJxhUuCtmtdSr2p-36" edge="1">
          <mxGeometry width="50" height="50" relative="1" as="geometry">
            <mxPoint x="112" y="-360" as="sourcePoint" />
            <mxPoint x="287" y="-270" as="targetPoint" />
          </mxGeometry>
        </mxCell>
        <mxCell id="8h2OuWD3OgGwAtyrORds-1" value="Telefon szám" style="ellipse;shape=doubleEllipse;whiteSpace=wrap;html=1;fillColor=#dae8fc;strokeColor=#6c8ebf;" parent="1" vertex="1">
          <mxGeometry x="1237" y="-240" width="120" height="60" as="geometry" />
        </mxCell>
        <mxCell id="8h2OuWD3OgGwAtyrORds-2" value="Igazgató" style="rounded=0;whiteSpace=wrap;html=1;" parent="1" vertex="1">
          <mxGeometry x="1180" y="-130" width="120" height="60" as="geometry" />
        </mxCell>
        <mxCell id="8h2OuWD3OgGwAtyrORds-20" style="edgeStyle=orthogonalEdgeStyle;rounded=0;orthogonalLoop=1;jettySize=auto;html=1;entryX=0.59;entryY=0.005;entryDx=0;entryDy=0;exitX=0.5;exitY=1;exitDx=0;exitDy=0;entryPerimeter=0;" parent="1" source="8h2OuWD3OgGwAtyrORds-3" target="BMlkPkJxhUuCtmtdSr2p-19" edge="1">
          <mxGeometry relative="1" as="geometry">
            <mxPoint x="1240" y="120" as="sourcePoint" />
            <Array as="points">
              <mxPoint x="1240" y="120" />
              <mxPoint x="810" y="120" />
              <mxPoint x="810" y="280" />
            </Array>
          </mxGeometry>
        </mxCell>
        <mxCell id="8h2OuWD3OgGwAtyrORds-3" value="Vezet" style="rhombus;whiteSpace=wrap;html=1;" parent="1" vertex="1">
          <mxGeometry x="1180" y="-10" width="120" height="60" as="geometry" />
        </mxCell>
        <mxCell id="8h2OuWD3OgGwAtyrORds-4" value="Igazgato_Id" style="ellipse;whiteSpace=wrap;html=1;fontStyle=4" parent="1" vertex="1">
          <mxGeometry x="940" y="-240" width="120" height="60" as="geometry" />
        </mxCell>
        <mxCell id="8h2OuWD3OgGwAtyrORds-5" value="Név" style="ellipse;whiteSpace=wrap;html=1;fontStyle=0" parent="1" vertex="1">
          <mxGeometry x="1087" y="-240" width="120" height="60" as="geometry" />
        </mxCell>
        <mxCell id="8h2OuWD3OgGwAtyrORds-7" value="Fizetés" style="ellipse;whiteSpace=wrap;html=1;fontStyle=0" parent="1" vertex="1">
          <mxGeometry x="1390" y="-240" width="120" height="60" as="geometry" />
        </mxCell>
        <mxCell id="8h2OuWD3OgGwAtyrORds-9" value="" style="endArrow=classic;html=1;rounded=0;exitX=0.5;exitY=0;exitDx=0;exitDy=0;entryX=0.5;entryY=1;entryDx=0;entryDy=0;startArrow=none;startFill=0;endFill=1;" parent="1" source="8h2OuWD3OgGwAtyrORds-3" target="8h2OuWD3OgGwAtyrORds-2" edge="1">
          <mxGeometry width="50" height="50" relative="1" as="geometry">
            <mxPoint x="1257.0000000000005" y="-70" as="sourcePoint" />
            <mxPoint x="1267" as="targetPoint" />
          </mxGeometry>
        </mxCell>
        <mxCell id="8h2OuWD3OgGwAtyrORds-10" value="" style="endArrow=none;html=1;rounded=0;exitX=0.5;exitY=0;exitDx=0;exitDy=0;entryX=0.5;entryY=1;entryDx=0;entryDy=0;" parent="1" source="8h2OuWD3OgGwAtyrORds-2" target="8h2OuWD3OgGwAtyrORds-4" edge="1">
          <mxGeometry width="50" height="50" relative="1" as="geometry">
            <mxPoint x="907" y="50" as="sourcePoint" />
            <mxPoint x="907" y="20" as="targetPoint" />
          </mxGeometry>
        </mxCell>
        <mxCell id="8h2OuWD3OgGwAtyrORds-11" value="" style="endArrow=none;html=1;rounded=0;exitX=0.5;exitY=0;exitDx=0;exitDy=0;entryX=0.5;entryY=1;entryDx=0;entryDy=0;" parent="1" source="8h2OuWD3OgGwAtyrORds-2" target="8h2OuWD3OgGwAtyrORds-5" edge="1">
          <mxGeometry width="50" height="50" relative="1" as="geometry">
            <mxPoint x="1267" y="-170" as="sourcePoint" />
            <mxPoint x="897" y="-220" as="targetPoint" />
          </mxGeometry>
        </mxCell>
        <mxCell id="8h2OuWD3OgGwAtyrORds-12" value="" style="endArrow=none;html=1;rounded=0;exitX=0.5;exitY=0;exitDx=0;exitDy=0;entryX=0.5;entryY=1;entryDx=0;entryDy=0;" parent="1" source="8h2OuWD3OgGwAtyrORds-2" target="8h2OuWD3OgGwAtyrORds-1" edge="1">
          <mxGeometry width="50" height="50" relative="1" as="geometry">
            <mxPoint x="1267" y="-170" as="sourcePoint" />
            <mxPoint x="1047" y="-220" as="targetPoint" />
          </mxGeometry>
        </mxCell>
        <mxCell id="8h2OuWD3OgGwAtyrORds-14" value="" style="endArrow=none;html=1;rounded=0;exitX=0.5;exitY=0;exitDx=0;exitDy=0;entryX=0.5;entryY=1;entryDx=0;entryDy=0;" parent="1" source="8h2OuWD3OgGwAtyrORds-2" target="8h2OuWD3OgGwAtyrORds-7" edge="1">
          <mxGeometry width="50" height="50" relative="1" as="geometry">
            <mxPoint x="1267" y="-170" as="sourcePoint" />
            <mxPoint x="1347" y="-220" as="targetPoint" />
          </mxGeometry>
        </mxCell>
        <mxCell id="8h2OuWD3OgGwAtyrORds-16" value="Vezetéknév" style="ellipse;whiteSpace=wrap;html=1;" parent="1" vertex="1">
          <mxGeometry x="1027" y="-380" width="120" height="60" as="geometry" />
        </mxCell>
        <mxCell id="8h2OuWD3OgGwAtyrORds-17" value="Keresztnév" style="ellipse;whiteSpace=wrap;html=1;" parent="1" vertex="1">
          <mxGeometry x="1172" y="-380" width="120" height="60" as="geometry" />
        </mxCell>
        <mxCell id="8h2OuWD3OgGwAtyrORds-18" value="" style="endArrow=none;html=1;rounded=0;exitX=0.5;exitY=1;exitDx=0;exitDy=0;entryX=0.5;entryY=0;entryDx=0;entryDy=0;" parent="1" source="8h2OuWD3OgGwAtyrORds-16" target="8h2OuWD3OgGwAtyrORds-5" edge="1">
          <mxGeometry width="50" height="50" relative="1" as="geometry">
            <mxPoint x="1002" y="-490" as="sourcePoint" />
            <mxPoint x="1082" y="-270" as="targetPoint" />
          </mxGeometry>
        </mxCell>
        <mxCell id="8h2OuWD3OgGwAtyrORds-19" value="" style="endArrow=none;html=1;rounded=0;exitX=0.5;exitY=1;exitDx=0;exitDy=0;entryX=0.5;entryY=0;entryDx=0;entryDy=0;" parent="1" source="8h2OuWD3OgGwAtyrORds-17" target="8h2OuWD3OgGwAtyrORds-5" edge="1">
          <mxGeometry width="50" height="50" relative="1" as="geometry">
            <mxPoint x="1092" y="-360" as="sourcePoint" />
            <mxPoint x="1267" y="-270" as="targetPoint" />
          </mxGeometry>
        </mxCell>
        <mxCell id="4F3A67SKKLiJw35e46Ub-5" style="edgeStyle=orthogonalEdgeStyle;rounded=0;orthogonalLoop=1;jettySize=auto;html=1;exitX=1;exitY=0.5;exitDx=0;exitDy=0;entryX=0;entryY=0.5;entryDx=0;entryDy=0;endArrow=none;endFill=0;" parent="1" source="4F3A67SKKLiJw35e46Ub-4" target="BMlkPkJxhUuCtmtdSr2p-34" edge="1">
          <mxGeometry relative="1" as="geometry" />
        </mxCell>
        <mxCell id="4F3A67SKKLiJw35e46Ub-4" value="Osztá&lt;span style=&quot;background-color: initial;&quot;&gt;ly&lt;/span&gt;" style="ellipse;shape=doubleEllipse;whiteSpace=wrap;html=1;fillColor=#dae8fc;strokeColor=#6c8ebf;" parent="1" vertex="1">
          <mxGeometry x="160" y="-10" width="120" height="60" as="geometry" />
        </mxCell>
        <mxCell id="ZkQXQhBP3V9jxNkfpGBP-3" style="edgeStyle=orthogonalEdgeStyle;rounded=0;orthogonalLoop=1;jettySize=auto;html=1;exitX=0.5;exitY=0;exitDx=0;exitDy=0;entryX=0;entryY=0.5;entryDx=0;entryDy=0;" edge="1" parent="1" source="ZkQXQhBP3V9jxNkfpGBP-1" target="BMlkPkJxhUuCtmtdSr2p-32">
          <mxGeometry relative="1" as="geometry" />
        </mxCell>
        <mxCell id="ZkQXQhBP3V9jxNkfpGBP-1" value="Osztályfőnök" style="rhombus;whiteSpace=wrap;html=1;" vertex="1" parent="1">
          <mxGeometry x="-100" y="-10" width="120" height="60" as="geometry" />
        </mxCell>
      </root>
    </mxGraphModel>
  </diagram>
  <diagram id="Bb_EiHsn3PkZoMPZwmll" name="XDM">
    <mxGraphModel dx="1050" dy="717" grid="1" gridSize="10" guides="1" tooltips="1" connect="1" arrows="1" fold="1" page="1" pageScale="1" pageWidth="827" pageHeight="1169" math="0" shadow="0">
      <root>
        <mxCell id="0" />
        <mxCell id="1" parent="0" />
        <mxCell id="9Dg1G8Zponl_7m4OpEt4-1" value="Iskolák" style="ellipse;whiteSpace=wrap;html=1;allowArrows=0;" parent="1" vertex="1">
          <mxGeometry x="1800" y="30" width="120" height="80" as="geometry" />
        </mxCell>
        <mxCell id="CkeJMP2IWJgnlttRXtSZ-3" style="rounded=0;orthogonalLoop=1;jettySize=auto;html=1;exitX=0.5;exitY=0;exitDx=0;exitDy=0;endArrow=none;endFill=0;" parent="1" source="9Dg1G8Zponl_7m4OpEt4-2" edge="1">
          <mxGeometry relative="1" as="geometry">
            <mxPoint x="1860" y="110" as="targetPoint" />
          </mxGeometry>
        </mxCell>
        <mxCell id="9Dg1G8Zponl_7m4OpEt4-2" value="Iskola" style="ellipse;shape=doubleEllipse;whiteSpace=wrap;html=1;" parent="1" vertex="1">
          <mxGeometry x="520" y="280" width="120" height="80" as="geometry" />
        </mxCell>
        <mxCell id="uU7vuuNP9EejaTIQ6NPG-8" style="rounded=0;orthogonalLoop=1;jettySize=auto;html=1;exitX=0.5;exitY=0;exitDx=0;exitDy=0;entryX=0.5;entryY=1;entryDx=0;entryDy=0;endArrow=none;endFill=0;" parent="1" source="9Dg1G8Zponl_7m4OpEt4-3" target="9Dg1G8Zponl_7m4OpEt4-2" edge="1">
          <mxGeometry relative="1" as="geometry" />
        </mxCell>
        <mxCell id="9Dg1G8Zponl_7m4OpEt4-3" value="Iskola_Id" style="rhombus;whiteSpace=wrap;html=1;fontStyle=4" parent="1" vertex="1">
          <mxGeometry x="240" y="400" width="80" height="80" as="geometry" />
        </mxCell>
        <mxCell id="uU7vuuNP9EejaTIQ6NPG-3" style="edgeStyle=orthogonalEdgeStyle;rounded=0;orthogonalLoop=1;jettySize=auto;html=1;exitX=0.5;exitY=0;exitDx=0;exitDy=0;entryX=0.5;entryY=1;entryDx=0;entryDy=0;endArrow=none;endFill=0;" parent="1" source="9Dg1G8Zponl_7m4OpEt4-4" target="NDfn3AcP2k5HP2kxFd9G-2" edge="1">
          <mxGeometry relative="1" as="geometry" />
        </mxCell>
        <mxCell id="9Dg1G8Zponl_7m4OpEt4-4" value="" style="whiteSpace=wrap;html=1;" parent="1" vertex="1">
          <mxGeometry x="555" y="520" width="50" height="80" as="geometry" />
        </mxCell>
        <mxCell id="uU7vuuNP9EejaTIQ6NPG-5" style="rounded=0;orthogonalLoop=1;jettySize=auto;html=1;exitX=0.5;exitY=0;exitDx=0;exitDy=0;entryX=0.5;entryY=1;entryDx=0;entryDy=0;endArrow=none;endFill=0;" parent="1" source="NDfn3AcP2k5HP2kxFd9G-1" target="9Dg1G8Zponl_7m4OpEt4-2" edge="1">
          <mxGeometry relative="1" as="geometry" />
        </mxCell>
        <mxCell id="NDfn3AcP2k5HP2kxFd9G-1" value="Név" style="ellipse;whiteSpace=wrap;html=1;" parent="1" vertex="1">
          <mxGeometry x="360" y="400" width="120" height="80" as="geometry" />
        </mxCell>
        <mxCell id="uU7vuuNP9EejaTIQ6NPG-6" style="rounded=0;orthogonalLoop=1;jettySize=auto;html=1;exitX=0.5;exitY=0;exitDx=0;exitDy=0;entryX=0.5;entryY=1;entryDx=0;entryDy=0;endArrow=none;endFill=0;" parent="1" source="NDfn3AcP2k5HP2kxFd9G-2" target="9Dg1G8Zponl_7m4OpEt4-2" edge="1">
          <mxGeometry relative="1" as="geometry" />
        </mxCell>
        <mxCell id="NDfn3AcP2k5HP2kxFd9G-2" value="Cím" style="ellipse;whiteSpace=wrap;html=1;" parent="1" vertex="1">
          <mxGeometry x="520" y="400" width="120" height="80" as="geometry" />
        </mxCell>
        <mxCell id="uU7vuuNP9EejaTIQ6NPG-7" style="rounded=0;orthogonalLoop=1;jettySize=auto;html=1;exitX=0.5;exitY=0;exitDx=0;exitDy=0;entryX=0.5;entryY=1;entryDx=0;entryDy=0;endArrow=none;endFill=0;" parent="1" source="pL_k9DhylqTJOfKArDwN-1" target="9Dg1G8Zponl_7m4OpEt4-2" edge="1">
          <mxGeometry relative="1" as="geometry" />
        </mxCell>
        <mxCell id="pL_k9DhylqTJOfKArDwN-1" value="Tanulók száma" style="ellipse;whiteSpace=wrap;html=1;" parent="1" vertex="1">
          <mxGeometry x="680" y="400" width="120" height="80" as="geometry" />
        </mxCell>
        <mxCell id="uU7vuuNP9EejaTIQ6NPG-4" style="edgeStyle=orthogonalEdgeStyle;rounded=0;orthogonalLoop=1;jettySize=auto;html=1;exitX=0.5;exitY=0;exitDx=0;exitDy=0;entryX=0.5;entryY=1;entryDx=0;entryDy=0;endArrow=none;endFill=0;" parent="1" source="pL_k9DhylqTJOfKArDwN-2" target="pL_k9DhylqTJOfKArDwN-1" edge="1">
          <mxGeometry relative="1" as="geometry" />
        </mxCell>
        <mxCell id="pL_k9DhylqTJOfKArDwN-2" value="" style="whiteSpace=wrap;html=1;" parent="1" vertex="1">
          <mxGeometry x="715" y="520" width="50" height="80" as="geometry" />
        </mxCell>
        <mxCell id="uU7vuuNP9EejaTIQ6NPG-2" style="edgeStyle=orthogonalEdgeStyle;rounded=0;orthogonalLoop=1;jettySize=auto;html=1;exitX=0.5;exitY=0;exitDx=0;exitDy=0;entryX=0.5;entryY=1;entryDx=0;entryDy=0;endArrow=none;endFill=0;" parent="1" source="uU7vuuNP9EejaTIQ6NPG-1" target="NDfn3AcP2k5HP2kxFd9G-1" edge="1">
          <mxGeometry relative="1" as="geometry" />
        </mxCell>
        <mxCell id="uU7vuuNP9EejaTIQ6NPG-1" value="" style="whiteSpace=wrap;html=1;" parent="1" vertex="1">
          <mxGeometry x="395" y="520" width="50" height="80" as="geometry" />
        </mxCell>
        <mxCell id="CkeJMP2IWJgnlttRXtSZ-2" style="rounded=0;orthogonalLoop=1;jettySize=auto;html=1;exitX=0.5;exitY=0;exitDx=0;exitDy=0;entryX=0.5;entryY=1;entryDx=0;entryDy=0;endArrow=none;endFill=0;" parent="1" source="uU7vuuNP9EejaTIQ6NPG-10" target="9Dg1G8Zponl_7m4OpEt4-1" edge="1">
          <mxGeometry relative="1" as="geometry" />
        </mxCell>
        <mxCell id="uU7vuuNP9EejaTIQ6NPG-10" value="Dolgozó" style="ellipse;shape=doubleEllipse;whiteSpace=wrap;html=1;" parent="1" vertex="1">
          <mxGeometry x="1080" y="280" width="120" height="80" as="geometry" />
        </mxCell>
        <mxCell id="uU7vuuNP9EejaTIQ6NPG-11" style="rounded=0;orthogonalLoop=1;jettySize=auto;html=1;exitX=0.5;exitY=0;exitDx=0;exitDy=0;entryX=0.5;entryY=1;entryDx=0;entryDy=0;endArrow=none;endFill=0;" parent="1" source="uU7vuuNP9EejaTIQ6NPG-12" target="uU7vuuNP9EejaTIQ6NPG-10" edge="1">
          <mxGeometry relative="1" as="geometry" />
        </mxCell>
        <mxCell id="uU7vuuNP9EejaTIQ6NPG-12" value="Dolgozó_Id" style="rhombus;whiteSpace=wrap;html=1;fontStyle=4" parent="1" vertex="1">
          <mxGeometry x="1440" y="400" width="80" height="80" as="geometry" />
        </mxCell>
        <mxCell id="uU7vuuNP9EejaTIQ6NPG-13" style="edgeStyle=orthogonalEdgeStyle;rounded=0;orthogonalLoop=1;jettySize=auto;html=1;exitX=0.5;exitY=0;exitDx=0;exitDy=0;entryX=0.5;entryY=1;entryDx=0;entryDy=0;endArrow=none;endFill=0;" parent="1" source="uU7vuuNP9EejaTIQ6NPG-14" target="uU7vuuNP9EejaTIQ6NPG-18" edge="1">
          <mxGeometry relative="1" as="geometry" />
        </mxCell>
        <mxCell id="uU7vuuNP9EejaTIQ6NPG-14" value="" style="whiteSpace=wrap;html=1;" parent="1" vertex="1">
          <mxGeometry x="1156" y="520" width="50" height="80" as="geometry" />
        </mxCell>
        <mxCell id="uU7vuuNP9EejaTIQ6NPG-15" style="rounded=0;orthogonalLoop=1;jettySize=auto;html=1;exitX=0.5;exitY=0;exitDx=0;exitDy=0;entryX=0.5;entryY=1;entryDx=0;entryDy=0;endArrow=none;endFill=0;" parent="1" source="uU7vuuNP9EejaTIQ6NPG-16" target="uU7vuuNP9EejaTIQ6NPG-10" edge="1">
          <mxGeometry relative="1" as="geometry" />
        </mxCell>
        <mxCell id="uU7vuuNP9EejaTIQ6NPG-16" value="Név" style="ellipse;whiteSpace=wrap;html=1;" parent="1" vertex="1">
          <mxGeometry x="960" y="400" width="120" height="80" as="geometry" />
        </mxCell>
        <mxCell id="uU7vuuNP9EejaTIQ6NPG-17" style="rounded=0;orthogonalLoop=1;jettySize=auto;html=1;exitX=0.5;exitY=0;exitDx=0;exitDy=0;entryX=0.5;entryY=1;entryDx=0;entryDy=0;endArrow=none;endFill=0;" parent="1" source="uU7vuuNP9EejaTIQ6NPG-18" target="uU7vuuNP9EejaTIQ6NPG-10" edge="1">
          <mxGeometry relative="1" as="geometry" />
        </mxCell>
        <mxCell id="uU7vuuNP9EejaTIQ6NPG-18" value="Fizetés" style="ellipse;whiteSpace=wrap;html=1;" parent="1" vertex="1">
          <mxGeometry x="1121" y="400" width="120" height="80" as="geometry" />
        </mxCell>
        <mxCell id="uU7vuuNP9EejaTIQ6NPG-19" style="rounded=0;orthogonalLoop=1;jettySize=auto;html=1;exitX=0.5;exitY=0;exitDx=0;exitDy=0;entryX=0.5;entryY=1;entryDx=0;entryDy=0;endArrow=none;endFill=0;" parent="1" source="uU7vuuNP9EejaTIQ6NPG-20" target="uU7vuuNP9EejaTIQ6NPG-10" edge="1">
          <mxGeometry relative="1" as="geometry" />
        </mxCell>
        <mxCell id="uU7vuuNP9EejaTIQ6NPG-20" value="Beosztás" style="ellipse;whiteSpace=wrap;html=1;" parent="1" vertex="1">
          <mxGeometry x="1280" y="400" width="120" height="80" as="geometry" />
        </mxCell>
        <mxCell id="uU7vuuNP9EejaTIQ6NPG-21" style="edgeStyle=orthogonalEdgeStyle;rounded=0;orthogonalLoop=1;jettySize=auto;html=1;exitX=0.5;exitY=0;exitDx=0;exitDy=0;entryX=0.5;entryY=1;entryDx=0;entryDy=0;endArrow=none;endFill=0;" parent="1" source="uU7vuuNP9EejaTIQ6NPG-22" target="uU7vuuNP9EejaTIQ6NPG-20" edge="1">
          <mxGeometry relative="1" as="geometry" />
        </mxCell>
        <mxCell id="uU7vuuNP9EejaTIQ6NPG-22" value="" style="whiteSpace=wrap;html=1;" parent="1" vertex="1">
          <mxGeometry x="1315" y="520" width="50" height="80" as="geometry" />
        </mxCell>
        <mxCell id="uU7vuuNP9EejaTIQ6NPG-23" style="rounded=0;orthogonalLoop=1;jettySize=auto;html=1;exitX=0.5;exitY=0;exitDx=0;exitDy=0;entryX=0.5;entryY=1;entryDx=0;entryDy=0;endArrow=none;endFill=0;" parent="1" source="I2uwdCV8KPsRCEYrsUJT-2" target="uU7vuuNP9EejaTIQ6NPG-16" edge="1">
          <mxGeometry relative="1" as="geometry">
            <mxPoint x="1000" y="520" as="sourcePoint" />
          </mxGeometry>
        </mxCell>
        <mxCell id="I2uwdCV8KPsRCEYrsUJT-5" style="rounded=0;orthogonalLoop=1;jettySize=auto;html=1;exitX=0.5;exitY=0;exitDx=0;exitDy=0;entryX=0.5;entryY=1;entryDx=0;entryDy=0;endArrow=none;endFill=0;" parent="1" source="I2uwdCV8KPsRCEYrsUJT-1" target="uU7vuuNP9EejaTIQ6NPG-16" edge="1">
          <mxGeometry relative="1" as="geometry" />
        </mxCell>
        <mxCell id="I2uwdCV8KPsRCEYrsUJT-1" value="Vezeték név" style="ellipse;whiteSpace=wrap;html=1;" parent="1" vertex="1">
          <mxGeometry x="885" y="520" width="120" height="80" as="geometry" />
        </mxCell>
        <mxCell id="I2uwdCV8KPsRCEYrsUJT-2" value="Kereszt név" style="ellipse;whiteSpace=wrap;html=1;" parent="1" vertex="1">
          <mxGeometry x="1020" y="520" width="120" height="80" as="geometry" />
        </mxCell>
        <mxCell id="I2uwdCV8KPsRCEYrsUJT-7" style="edgeStyle=orthogonalEdgeStyle;rounded=0;orthogonalLoop=1;jettySize=auto;html=1;exitX=0.5;exitY=0;exitDx=0;exitDy=0;entryX=0.5;entryY=1;entryDx=0;entryDy=0;endArrow=none;endFill=0;" parent="1" source="I2uwdCV8KPsRCEYrsUJT-3" target="I2uwdCV8KPsRCEYrsUJT-1" edge="1">
          <mxGeometry relative="1" as="geometry" />
        </mxCell>
        <mxCell id="I2uwdCV8KPsRCEYrsUJT-3" value="" style="whiteSpace=wrap;html=1;" parent="1" vertex="1">
          <mxGeometry x="920" y="640" width="50" height="80" as="geometry" />
        </mxCell>
        <mxCell id="I2uwdCV8KPsRCEYrsUJT-8" style="edgeStyle=orthogonalEdgeStyle;rounded=0;orthogonalLoop=1;jettySize=auto;html=1;exitX=0.5;exitY=0;exitDx=0;exitDy=0;entryX=0.5;entryY=1;entryDx=0;entryDy=0;endArrow=none;endFill=0;" parent="1" source="I2uwdCV8KPsRCEYrsUJT-6" target="I2uwdCV8KPsRCEYrsUJT-2" edge="1">
          <mxGeometry relative="1" as="geometry" />
        </mxCell>
        <mxCell id="I2uwdCV8KPsRCEYrsUJT-6" value="" style="whiteSpace=wrap;html=1;" parent="1" vertex="1">
          <mxGeometry x="1055" y="640" width="50" height="80" as="geometry" />
        </mxCell>
        <mxCell id="QG8uCllPr0kLrpnpBCak-2" style="rounded=0;orthogonalLoop=1;jettySize=auto;html=1;exitX=0.5;exitY=0;exitDx=0;exitDy=0;entryX=0.5;entryY=1;entryDx=0;entryDy=0;endArrow=none;endFill=0;" parent="1" source="QG8uCllPr0kLrpnpBCak-1" target="uU7vuuNP9EejaTIQ6NPG-10" edge="1">
          <mxGeometry relative="1" as="geometry" />
        </mxCell>
        <mxCell id="QG8uCllPr0kLrpnpBCak-4" value="" style="group" parent="1" vertex="1" connectable="0">
          <mxGeometry x="840" y="400" width="80" height="80" as="geometry" />
        </mxCell>
        <mxCell id="QG8uCllPr0kLrpnpBCak-1" value="Iskola_Id" style="rhombus;whiteSpace=wrap;html=1;" parent="QG8uCllPr0kLrpnpBCak-4" vertex="1">
          <mxGeometry width="80" height="80" as="geometry" />
        </mxCell>
        <mxCell id="QG8uCllPr0kLrpnpBCak-3" value="" style="endArrow=none;dashed=1;html=1;dashPattern=1 3;strokeWidth=2;rounded=0;exitX=0.874;exitY=0.618;exitDx=0;exitDy=0;exitPerimeter=0;entryX=0.111;entryY=0.609;entryDx=0;entryDy=0;entryPerimeter=0;" parent="QG8uCllPr0kLrpnpBCak-4" source="QG8uCllPr0kLrpnpBCak-1" target="QG8uCllPr0kLrpnpBCak-1" edge="1">
          <mxGeometry width="50" height="50" relative="1" as="geometry">
            <mxPoint x="-30" y="90" as="sourcePoint" />
            <mxPoint x="20" y="40" as="targetPoint" />
          </mxGeometry>
        </mxCell>
        <mxCell id="CkeJMP2IWJgnlttRXtSZ-1" style="edgeStyle=orthogonalEdgeStyle;rounded=0;orthogonalLoop=1;jettySize=auto;html=1;exitX=0.5;exitY=0;exitDx=0;exitDy=0;entryX=0.5;entryY=1;entryDx=0;entryDy=0;endArrow=none;endFill=0;" parent="1" source="_7UKjLEnaxNxy2S9yKzt-1" target="9Dg1G8Zponl_7m4OpEt4-1" edge="1">
          <mxGeometry relative="1" as="geometry" />
        </mxCell>
        <mxCell id="_7UKjLEnaxNxy2S9yKzt-1" value="Igazgató" style="ellipse;shape=doubleEllipse;whiteSpace=wrap;html=1;" parent="1" vertex="1">
          <mxGeometry x="1800" y="280" width="120" height="80" as="geometry" />
        </mxCell>
        <mxCell id="_7UKjLEnaxNxy2S9yKzt-2" style="rounded=0;orthogonalLoop=1;jettySize=auto;html=1;exitX=0.5;exitY=0;exitDx=0;exitDy=0;entryX=0.5;entryY=1;entryDx=0;entryDy=0;endArrow=none;endFill=0;" parent="1" source="_7UKjLEnaxNxy2S9yKzt-3" target="_7UKjLEnaxNxy2S9yKzt-1" edge="1">
          <mxGeometry relative="1" as="geometry" />
        </mxCell>
        <mxCell id="_7UKjLEnaxNxy2S9yKzt-3" value="Igazgató_Id" style="rhombus;whiteSpace=wrap;html=1;fontStyle=4" parent="1" vertex="1">
          <mxGeometry x="2160" y="400" width="80" height="80" as="geometry" />
        </mxCell>
        <mxCell id="_7UKjLEnaxNxy2S9yKzt-4" style="edgeStyle=orthogonalEdgeStyle;rounded=0;orthogonalLoop=1;jettySize=auto;html=1;exitX=0.5;exitY=0;exitDx=0;exitDy=0;entryX=0.5;entryY=1;entryDx=0;entryDy=0;endArrow=none;endFill=0;" parent="1" source="_7UKjLEnaxNxy2S9yKzt-5" target="_7UKjLEnaxNxy2S9yKzt-9" edge="1">
          <mxGeometry relative="1" as="geometry" />
        </mxCell>
        <mxCell id="_7UKjLEnaxNxy2S9yKzt-5" value="" style="whiteSpace=wrap;html=1;" parent="1" vertex="1">
          <mxGeometry x="1876" y="520" width="50" height="80" as="geometry" />
        </mxCell>
        <mxCell id="_7UKjLEnaxNxy2S9yKzt-6" style="rounded=0;orthogonalLoop=1;jettySize=auto;html=1;exitX=0.5;exitY=0;exitDx=0;exitDy=0;entryX=0.5;entryY=1;entryDx=0;entryDy=0;endArrow=none;endFill=0;" parent="1" source="_7UKjLEnaxNxy2S9yKzt-7" target="_7UKjLEnaxNxy2S9yKzt-1" edge="1">
          <mxGeometry relative="1" as="geometry" />
        </mxCell>
        <mxCell id="_7UKjLEnaxNxy2S9yKzt-7" value="Név" style="ellipse;whiteSpace=wrap;html=1;" parent="1" vertex="1">
          <mxGeometry x="1680" y="400" width="120" height="80" as="geometry" />
        </mxCell>
        <mxCell id="_7UKjLEnaxNxy2S9yKzt-8" style="rounded=0;orthogonalLoop=1;jettySize=auto;html=1;exitX=0.5;exitY=0;exitDx=0;exitDy=0;entryX=0.5;entryY=1;entryDx=0;entryDy=0;endArrow=none;endFill=0;" parent="1" source="_7UKjLEnaxNxy2S9yKzt-9" target="_7UKjLEnaxNxy2S9yKzt-1" edge="1">
          <mxGeometry relative="1" as="geometry" />
        </mxCell>
        <mxCell id="_7UKjLEnaxNxy2S9yKzt-9" value="Fizetés" style="ellipse;whiteSpace=wrap;html=1;" parent="1" vertex="1">
          <mxGeometry x="1841" y="400" width="120" height="80" as="geometry" />
        </mxCell>
        <mxCell id="_7UKjLEnaxNxy2S9yKzt-10" style="rounded=0;orthogonalLoop=1;jettySize=auto;html=1;exitX=0.5;exitY=0;exitDx=0;exitDy=0;entryX=0.5;entryY=1;entryDx=0;entryDy=0;endArrow=none;endFill=0;" parent="1" source="lZ0-QJOGhHpyAZBgKFLS-1" target="_7UKjLEnaxNxy2S9yKzt-1" edge="1">
          <mxGeometry relative="1" as="geometry">
            <mxPoint x="2060" y="399.9999999999998" as="sourcePoint" />
          </mxGeometry>
        </mxCell>
        <mxCell id="_7UKjLEnaxNxy2S9yKzt-12" style="edgeStyle=orthogonalEdgeStyle;rounded=0;orthogonalLoop=1;jettySize=auto;html=1;exitX=0.5;exitY=0;exitDx=0;exitDy=0;entryX=0.5;entryY=1;entryDx=0;entryDy=0;endArrow=none;endFill=0;" parent="1" source="_7UKjLEnaxNxy2S9yKzt-13" target="lZ0-QJOGhHpyAZBgKFLS-1" edge="1">
          <mxGeometry relative="1" as="geometry">
            <mxPoint x="2060" y="479.9999999999998" as="targetPoint" />
          </mxGeometry>
        </mxCell>
        <mxCell id="_7UKjLEnaxNxy2S9yKzt-13" value="" style="whiteSpace=wrap;html=1;" parent="1" vertex="1">
          <mxGeometry x="2035" y="520" width="50" height="80" as="geometry" />
        </mxCell>
        <mxCell id="_7UKjLEnaxNxy2S9yKzt-14" style="rounded=0;orthogonalLoop=1;jettySize=auto;html=1;exitX=0.5;exitY=0;exitDx=0;exitDy=0;entryX=0.5;entryY=1;entryDx=0;entryDy=0;endArrow=none;endFill=0;" parent="1" source="_7UKjLEnaxNxy2S9yKzt-17" target="_7UKjLEnaxNxy2S9yKzt-7" edge="1">
          <mxGeometry relative="1" as="geometry">
            <mxPoint x="1720" y="520" as="sourcePoint" />
          </mxGeometry>
        </mxCell>
        <mxCell id="_7UKjLEnaxNxy2S9yKzt-15" style="rounded=0;orthogonalLoop=1;jettySize=auto;html=1;exitX=0.5;exitY=0;exitDx=0;exitDy=0;entryX=0.5;entryY=1;entryDx=0;entryDy=0;endArrow=none;endFill=0;" parent="1" source="_7UKjLEnaxNxy2S9yKzt-16" target="_7UKjLEnaxNxy2S9yKzt-7" edge="1">
          <mxGeometry relative="1" as="geometry" />
        </mxCell>
        <mxCell id="_7UKjLEnaxNxy2S9yKzt-16" value="Vezeték név" style="ellipse;whiteSpace=wrap;html=1;" parent="1" vertex="1">
          <mxGeometry x="1605" y="520" width="120" height="80" as="geometry" />
        </mxCell>
        <mxCell id="_7UKjLEnaxNxy2S9yKzt-17" value="Kereszt név" style="ellipse;whiteSpace=wrap;html=1;" parent="1" vertex="1">
          <mxGeometry x="1740" y="520" width="120" height="80" as="geometry" />
        </mxCell>
        <mxCell id="_7UKjLEnaxNxy2S9yKzt-18" style="edgeStyle=orthogonalEdgeStyle;rounded=0;orthogonalLoop=1;jettySize=auto;html=1;exitX=0.5;exitY=0;exitDx=0;exitDy=0;entryX=0.5;entryY=1;entryDx=0;entryDy=0;endArrow=none;endFill=0;" parent="1" source="_7UKjLEnaxNxy2S9yKzt-19" target="_7UKjLEnaxNxy2S9yKzt-16" edge="1">
          <mxGeometry relative="1" as="geometry" />
        </mxCell>
        <mxCell id="_7UKjLEnaxNxy2S9yKzt-19" value="" style="whiteSpace=wrap;html=1;" parent="1" vertex="1">
          <mxGeometry x="1640" y="640" width="50" height="80" as="geometry" />
        </mxCell>
        <mxCell id="_7UKjLEnaxNxy2S9yKzt-20" style="edgeStyle=orthogonalEdgeStyle;rounded=0;orthogonalLoop=1;jettySize=auto;html=1;exitX=0.5;exitY=0;exitDx=0;exitDy=0;entryX=0.5;entryY=1;entryDx=0;entryDy=0;endArrow=none;endFill=0;" parent="1" source="_7UKjLEnaxNxy2S9yKzt-21" target="_7UKjLEnaxNxy2S9yKzt-17" edge="1">
          <mxGeometry relative="1" as="geometry" />
        </mxCell>
        <mxCell id="_7UKjLEnaxNxy2S9yKzt-21" value="" style="whiteSpace=wrap;html=1;" parent="1" vertex="1">
          <mxGeometry x="1775" y="640" width="50" height="80" as="geometry" />
        </mxCell>
        <mxCell id="_7UKjLEnaxNxy2S9yKzt-22" style="rounded=0;orthogonalLoop=1;jettySize=auto;html=1;exitX=0.5;exitY=0;exitDx=0;exitDy=0;entryX=0.5;entryY=1;entryDx=0;entryDy=0;endArrow=none;endFill=0;" parent="1" source="_7UKjLEnaxNxy2S9yKzt-24" target="_7UKjLEnaxNxy2S9yKzt-1" edge="1">
          <mxGeometry relative="1" as="geometry" />
        </mxCell>
        <mxCell id="_7UKjLEnaxNxy2S9yKzt-23" value="" style="group" parent="1" vertex="1" connectable="0">
          <mxGeometry x="1560" y="400" width="80" height="80" as="geometry" />
        </mxCell>
        <mxCell id="_7UKjLEnaxNxy2S9yKzt-24" value="Iskola_Id" style="rhombus;whiteSpace=wrap;html=1;" parent="_7UKjLEnaxNxy2S9yKzt-23" vertex="1">
          <mxGeometry width="80" height="80" as="geometry" />
        </mxCell>
        <mxCell id="_7UKjLEnaxNxy2S9yKzt-25" value="" style="endArrow=none;dashed=1;html=1;dashPattern=1 3;strokeWidth=2;rounded=0;exitX=0.874;exitY=0.618;exitDx=0;exitDy=0;exitPerimeter=0;entryX=0.111;entryY=0.609;entryDx=0;entryDy=0;entryPerimeter=0;" parent="_7UKjLEnaxNxy2S9yKzt-23" source="_7UKjLEnaxNxy2S9yKzt-24" target="_7UKjLEnaxNxy2S9yKzt-24" edge="1">
          <mxGeometry width="50" height="50" relative="1" as="geometry">
            <mxPoint x="-30" y="90" as="sourcePoint" />
            <mxPoint x="20" y="40" as="targetPoint" />
          </mxGeometry>
        </mxCell>
        <mxCell id="lZ0-QJOGhHpyAZBgKFLS-1" value="Telefonszám" style="ellipse;shape=doubleEllipse;whiteSpace=wrap;html=1;" parent="1" vertex="1">
          <mxGeometry x="2000" y="400" width="120" height="80" as="geometry" />
        </mxCell>
        <mxCell id="CkeJMP2IWJgnlttRXtSZ-4" style="rounded=0;orthogonalLoop=1;jettySize=auto;html=1;exitX=0.5;exitY=0;exitDx=0;exitDy=0;endArrow=none;endFill=0;" parent="1" source="lZ0-QJOGhHpyAZBgKFLS-2" edge="1">
          <mxGeometry relative="1" as="geometry">
            <mxPoint x="1860" y="110" as="targetPoint" />
          </mxGeometry>
        </mxCell>
        <mxCell id="lZ0-QJOGhHpyAZBgKFLS-2" value="Tanár" style="ellipse;shape=doubleEllipse;whiteSpace=wrap;html=1;" parent="1" vertex="1">
          <mxGeometry x="3081" y="280" width="120" height="80" as="geometry" />
        </mxCell>
        <mxCell id="lZ0-QJOGhHpyAZBgKFLS-3" style="rounded=0;orthogonalLoop=1;jettySize=auto;html=1;exitX=0.5;exitY=0;exitDx=0;exitDy=0;entryX=0.5;entryY=1;entryDx=0;entryDy=0;endArrow=none;endFill=0;" parent="1" source="lZ0-QJOGhHpyAZBgKFLS-4" target="lZ0-QJOGhHpyAZBgKFLS-2" edge="1">
          <mxGeometry relative="1" as="geometry" />
        </mxCell>
        <mxCell id="lZ0-QJOGhHpyAZBgKFLS-4" value="Tanár_Id" style="rhombus;whiteSpace=wrap;html=1;fontStyle=4" parent="1" vertex="1">
          <mxGeometry x="3480" y="400" width="80" height="80" as="geometry" />
        </mxCell>
        <mxCell id="lZ0-QJOGhHpyAZBgKFLS-5" style="edgeStyle=orthogonalEdgeStyle;rounded=0;orthogonalLoop=1;jettySize=auto;html=1;exitX=0.5;exitY=0;exitDx=0;exitDy=0;entryX=0.5;entryY=1;entryDx=0;entryDy=0;endArrow=none;endFill=0;" parent="1" source="lZ0-QJOGhHpyAZBgKFLS-6" target="lZ0-QJOGhHpyAZBgKFLS-10" edge="1">
          <mxGeometry relative="1" as="geometry" />
        </mxCell>
        <mxCell id="lZ0-QJOGhHpyAZBgKFLS-6" value="" style="whiteSpace=wrap;html=1;" parent="1" vertex="1">
          <mxGeometry x="2877" y="520" width="50" height="80" as="geometry" />
        </mxCell>
        <mxCell id="lZ0-QJOGhHpyAZBgKFLS-7" style="rounded=0;orthogonalLoop=1;jettySize=auto;html=1;exitX=0.5;exitY=0;exitDx=0;exitDy=0;entryX=0.5;entryY=1;entryDx=0;entryDy=0;endArrow=none;endFill=0;" parent="1" source="lZ0-QJOGhHpyAZBgKFLS-8" target="lZ0-QJOGhHpyAZBgKFLS-2" edge="1">
          <mxGeometry relative="1" as="geometry" />
        </mxCell>
        <mxCell id="lZ0-QJOGhHpyAZBgKFLS-8" value="Név" style="ellipse;whiteSpace=wrap;html=1;" parent="1" vertex="1">
          <mxGeometry x="2681" y="400" width="120" height="80" as="geometry" />
        </mxCell>
        <mxCell id="lZ0-QJOGhHpyAZBgKFLS-9" style="rounded=0;orthogonalLoop=1;jettySize=auto;html=1;exitX=0.5;exitY=0;exitDx=0;exitDy=0;entryX=0.5;entryY=1;entryDx=0;entryDy=0;endArrow=none;endFill=0;" parent="1" source="lZ0-QJOGhHpyAZBgKFLS-10" target="lZ0-QJOGhHpyAZBgKFLS-2" edge="1">
          <mxGeometry relative="1" as="geometry" />
        </mxCell>
        <mxCell id="lZ0-QJOGhHpyAZBgKFLS-10" value="Fizetés" style="ellipse;whiteSpace=wrap;html=1;" parent="1" vertex="1">
          <mxGeometry x="2842" y="400" width="120" height="80" as="geometry" />
        </mxCell>
        <mxCell id="lZ0-QJOGhHpyAZBgKFLS-11" style="rounded=0;orthogonalLoop=1;jettySize=auto;html=1;exitX=0.5;exitY=0;exitDx=0;exitDy=0;entryX=0.5;entryY=1;entryDx=0;entryDy=0;endArrow=none;endFill=0;" parent="1" source="lZ0-QJOGhHpyAZBgKFLS-26" target="lZ0-QJOGhHpyAZBgKFLS-2" edge="1">
          <mxGeometry relative="1" as="geometry">
            <mxPoint x="3061" y="399.9999999999998" as="sourcePoint" />
          </mxGeometry>
        </mxCell>
        <mxCell id="lZ0-QJOGhHpyAZBgKFLS-12" style="edgeStyle=orthogonalEdgeStyle;rounded=0;orthogonalLoop=1;jettySize=auto;html=1;exitX=0.5;exitY=0;exitDx=0;exitDy=0;entryX=0.5;entryY=1;entryDx=0;entryDy=0;endArrow=none;endFill=0;" parent="1" source="lZ0-QJOGhHpyAZBgKFLS-13" target="lZ0-QJOGhHpyAZBgKFLS-26" edge="1">
          <mxGeometry relative="1" as="geometry">
            <mxPoint x="3061" y="479.9999999999998" as="targetPoint" />
          </mxGeometry>
        </mxCell>
        <mxCell id="lZ0-QJOGhHpyAZBgKFLS-13" value="" style="whiteSpace=wrap;html=1;" parent="1" vertex="1">
          <mxGeometry x="3036" y="520" width="50" height="80" as="geometry" />
        </mxCell>
        <mxCell id="lZ0-QJOGhHpyAZBgKFLS-14" style="rounded=0;orthogonalLoop=1;jettySize=auto;html=1;exitX=0.5;exitY=0;exitDx=0;exitDy=0;entryX=0.5;entryY=1;entryDx=0;entryDy=0;endArrow=none;endFill=0;" parent="1" source="lZ0-QJOGhHpyAZBgKFLS-17" target="lZ0-QJOGhHpyAZBgKFLS-8" edge="1">
          <mxGeometry relative="1" as="geometry">
            <mxPoint x="2721" y="520" as="sourcePoint" />
          </mxGeometry>
        </mxCell>
        <mxCell id="lZ0-QJOGhHpyAZBgKFLS-15" style="rounded=0;orthogonalLoop=1;jettySize=auto;html=1;exitX=0.5;exitY=0;exitDx=0;exitDy=0;entryX=0.5;entryY=1;entryDx=0;entryDy=0;endArrow=none;endFill=0;" parent="1" source="lZ0-QJOGhHpyAZBgKFLS-16" target="lZ0-QJOGhHpyAZBgKFLS-8" edge="1">
          <mxGeometry relative="1" as="geometry" />
        </mxCell>
        <mxCell id="lZ0-QJOGhHpyAZBgKFLS-16" value="Vezeték név" style="ellipse;whiteSpace=wrap;html=1;" parent="1" vertex="1">
          <mxGeometry x="2606" y="520" width="120" height="80" as="geometry" />
        </mxCell>
        <mxCell id="lZ0-QJOGhHpyAZBgKFLS-17" value="Kereszt név" style="ellipse;whiteSpace=wrap;html=1;" parent="1" vertex="1">
          <mxGeometry x="2741" y="520" width="120" height="80" as="geometry" />
        </mxCell>
        <mxCell id="lZ0-QJOGhHpyAZBgKFLS-18" style="edgeStyle=orthogonalEdgeStyle;rounded=0;orthogonalLoop=1;jettySize=auto;html=1;exitX=0.5;exitY=0;exitDx=0;exitDy=0;entryX=0.5;entryY=1;entryDx=0;entryDy=0;endArrow=none;endFill=0;" parent="1" source="lZ0-QJOGhHpyAZBgKFLS-19" target="lZ0-QJOGhHpyAZBgKFLS-16" edge="1">
          <mxGeometry relative="1" as="geometry" />
        </mxCell>
        <mxCell id="lZ0-QJOGhHpyAZBgKFLS-19" value="" style="whiteSpace=wrap;html=1;" parent="1" vertex="1">
          <mxGeometry x="2641" y="640" width="50" height="80" as="geometry" />
        </mxCell>
        <mxCell id="lZ0-QJOGhHpyAZBgKFLS-20" style="edgeStyle=orthogonalEdgeStyle;rounded=0;orthogonalLoop=1;jettySize=auto;html=1;exitX=0.5;exitY=0;exitDx=0;exitDy=0;entryX=0.5;entryY=1;entryDx=0;entryDy=0;endArrow=none;endFill=0;" parent="1" source="lZ0-QJOGhHpyAZBgKFLS-21" target="lZ0-QJOGhHpyAZBgKFLS-17" edge="1">
          <mxGeometry relative="1" as="geometry" />
        </mxCell>
        <mxCell id="lZ0-QJOGhHpyAZBgKFLS-21" value="" style="whiteSpace=wrap;html=1;" parent="1" vertex="1">
          <mxGeometry x="2776" y="640" width="50" height="80" as="geometry" />
        </mxCell>
        <mxCell id="lZ0-QJOGhHpyAZBgKFLS-22" style="rounded=0;orthogonalLoop=1;jettySize=auto;html=1;exitX=0.5;exitY=0;exitDx=0;exitDy=0;entryX=0.5;entryY=1;entryDx=0;entryDy=0;endArrow=none;endFill=0;" parent="1" source="lZ0-QJOGhHpyAZBgKFLS-24" target="lZ0-QJOGhHpyAZBgKFLS-2" edge="1">
          <mxGeometry relative="1" as="geometry" />
        </mxCell>
        <mxCell id="lZ0-QJOGhHpyAZBgKFLS-23" value="" style="group" parent="1" vertex="1" connectable="0">
          <mxGeometry x="2561" y="400" width="80" height="80" as="geometry" />
        </mxCell>
        <mxCell id="lZ0-QJOGhHpyAZBgKFLS-24" value="Oktat_Id" style="rhombus;whiteSpace=wrap;html=1;" parent="lZ0-QJOGhHpyAZBgKFLS-23" vertex="1">
          <mxGeometry width="80" height="80" as="geometry" />
        </mxCell>
        <mxCell id="lZ0-QJOGhHpyAZBgKFLS-25" value="" style="endArrow=none;dashed=1;html=1;dashPattern=1 3;strokeWidth=2;rounded=0;exitX=0.874;exitY=0.618;exitDx=0;exitDy=0;exitPerimeter=0;entryX=0.111;entryY=0.609;entryDx=0;entryDy=0;entryPerimeter=0;" parent="lZ0-QJOGhHpyAZBgKFLS-23" source="lZ0-QJOGhHpyAZBgKFLS-24" target="lZ0-QJOGhHpyAZBgKFLS-24" edge="1">
          <mxGeometry width="50" height="50" relative="1" as="geometry">
            <mxPoint x="-30" y="90" as="sourcePoint" />
            <mxPoint x="20" y="40" as="targetPoint" />
          </mxGeometry>
        </mxCell>
        <mxCell id="lZ0-QJOGhHpyAZBgKFLS-26" value="Telefonszám" style="ellipse;shape=doubleEllipse;whiteSpace=wrap;html=1;" parent="1" vertex="1">
          <mxGeometry x="3001" y="400" width="120" height="80" as="geometry" />
        </mxCell>
        <mxCell id="j8i95WI2d_YW_2UN0Wvp-1" style="edgeStyle=orthogonalEdgeStyle;rounded=0;orthogonalLoop=1;jettySize=auto;html=1;exitX=0.5;exitY=0;exitDx=0;exitDy=0;entryX=0.5;entryY=1;entryDx=0;entryDy=0;endArrow=none;endFill=0;" parent="1" source="j8i95WI2d_YW_2UN0Wvp-2" target="j8i95WI2d_YW_2UN0Wvp-3" edge="1">
          <mxGeometry relative="1" as="geometry" />
        </mxCell>
        <mxCell id="j8i95WI2d_YW_2UN0Wvp-2" value="" style="whiteSpace=wrap;html=1;" parent="1" vertex="1">
          <mxGeometry x="3196" y="520" width="50" height="80" as="geometry" />
        </mxCell>
        <mxCell id="8TiBlmyMo1EWjqGMCS_N-1" style="rounded=0;orthogonalLoop=1;jettySize=auto;html=1;exitX=0.5;exitY=0;exitDx=0;exitDy=0;entryX=0.5;entryY=1;entryDx=0;entryDy=0;endArrow=none;endFill=0;" parent="1" source="j8i95WI2d_YW_2UN0Wvp-3" target="lZ0-QJOGhHpyAZBgKFLS-2" edge="1">
          <mxGeometry relative="1" as="geometry" />
        </mxCell>
        <mxCell id="j8i95WI2d_YW_2UN0Wvp-3" value="Diákok száma" style="ellipse;whiteSpace=wrap;html=1;" parent="1" vertex="1">
          <mxGeometry x="3161" y="400" width="120" height="80" as="geometry" />
        </mxCell>
        <mxCell id="pNVGA3VQCwonkO7MHra9-1" style="edgeStyle=orthogonalEdgeStyle;rounded=0;orthogonalLoop=1;jettySize=auto;html=1;exitX=0.5;exitY=0;exitDx=0;exitDy=0;entryX=0.5;entryY=1;entryDx=0;entryDy=0;endArrow=none;endFill=0;" parent="1" source="pNVGA3VQCwonkO7MHra9-2" target="pNVGA3VQCwonkO7MHra9-3" edge="1">
          <mxGeometry relative="1" as="geometry">
            <mxPoint x="3381" y="479.9999999999998" as="targetPoint" />
          </mxGeometry>
        </mxCell>
        <mxCell id="pNVGA3VQCwonkO7MHra9-2" value="" style="whiteSpace=wrap;html=1;" parent="1" vertex="1">
          <mxGeometry x="3356" y="520" width="50" height="80" as="geometry" />
        </mxCell>
        <mxCell id="8TiBlmyMo1EWjqGMCS_N-2" style="rounded=0;orthogonalLoop=1;jettySize=auto;html=1;exitX=0.5;exitY=0;exitDx=0;exitDy=0;entryX=0.5;entryY=1;entryDx=0;entryDy=0;endArrow=none;endFill=0;" parent="1" source="pNVGA3VQCwonkO7MHra9-3" target="lZ0-QJOGhHpyAZBgKFLS-2" edge="1">
          <mxGeometry relative="1" as="geometry" />
        </mxCell>
        <mxCell id="pNVGA3VQCwonkO7MHra9-3" value="Szak" style="ellipse;shape=doubleEllipse;whiteSpace=wrap;html=1;" parent="1" vertex="1">
          <mxGeometry x="3321" y="400" width="120" height="80" as="geometry" />
        </mxCell>
        <mxCell id="CkeJMP2IWJgnlttRXtSZ-5" style="rounded=0;orthogonalLoop=1;jettySize=auto;html=1;exitX=0.5;exitY=0;exitDx=0;exitDy=0;entryX=0.5;entryY=1;entryDx=0;entryDy=0;endArrow=none;endFill=0;" parent="1" source="rW1OkoMkuqWJtrbb729G-30" target="9Dg1G8Zponl_7m4OpEt4-1" edge="1">
          <mxGeometry relative="1" as="geometry">
            <mxPoint x="1930" y="140" as="targetPoint" />
          </mxGeometry>
        </mxCell>
        <mxCell id="rW1OkoMkuqWJtrbb729G-30" value="Tanuló" style="ellipse;shape=doubleEllipse;whiteSpace=wrap;html=1;" parent="1" vertex="1">
          <mxGeometry x="3820" y="280" width="120" height="80" as="geometry" />
        </mxCell>
        <mxCell id="rW1OkoMkuqWJtrbb729G-31" style="rounded=0;orthogonalLoop=1;jettySize=auto;html=1;exitX=0.5;exitY=0;exitDx=0;exitDy=0;entryX=0.5;entryY=1;entryDx=0;entryDy=0;endArrow=none;endFill=0;" parent="1" source="rW1OkoMkuqWJtrbb729G-32" target="rW1OkoMkuqWJtrbb729G-30" edge="1">
          <mxGeometry relative="1" as="geometry" />
        </mxCell>
        <mxCell id="rW1OkoMkuqWJtrbb729G-32" value="Tanuló_Id" style="rhombus;whiteSpace=wrap;html=1;fontStyle=4" parent="1" vertex="1">
          <mxGeometry x="4140" y="400" width="80" height="80" as="geometry" />
        </mxCell>
        <mxCell id="rW1OkoMkuqWJtrbb729G-35" style="rounded=0;orthogonalLoop=1;jettySize=auto;html=1;exitX=0.5;exitY=0;exitDx=0;exitDy=0;entryX=0.5;entryY=1;entryDx=0;entryDy=0;endArrow=none;endFill=0;" parent="1" source="rW1OkoMkuqWJtrbb729G-36" target="rW1OkoMkuqWJtrbb729G-30" edge="1">
          <mxGeometry relative="1" as="geometry" />
        </mxCell>
        <mxCell id="rW1OkoMkuqWJtrbb729G-36" value="Név" style="ellipse;whiteSpace=wrap;html=1;" parent="1" vertex="1">
          <mxGeometry x="3820" y="400" width="120" height="80" as="geometry" />
        </mxCell>
        <mxCell id="rW1OkoMkuqWJtrbb729G-39" style="rounded=0;orthogonalLoop=1;jettySize=auto;html=1;entryX=0.5;entryY=1;entryDx=0;entryDy=0;endArrow=none;endFill=0;exitX=0.5;exitY=0;exitDx=0;exitDy=0;" parent="1" source="rW1OkoMkuqWJtrbb729G-64" target="rW1OkoMkuqWJtrbb729G-30" edge="1">
          <mxGeometry relative="1" as="geometry">
            <mxPoint x="4195" y="410" as="sourcePoint" />
          </mxGeometry>
        </mxCell>
        <mxCell id="rW1OkoMkuqWJtrbb729G-42" style="rounded=0;orthogonalLoop=1;jettySize=auto;html=1;exitX=0.5;exitY=0;exitDx=0;exitDy=0;entryX=0.5;entryY=1;entryDx=0;entryDy=0;endArrow=none;endFill=0;" parent="1" source="rW1OkoMkuqWJtrbb729G-45" target="rW1OkoMkuqWJtrbb729G-36" edge="1">
          <mxGeometry relative="1" as="geometry">
            <mxPoint x="3855" y="520" as="sourcePoint" />
          </mxGeometry>
        </mxCell>
        <mxCell id="rW1OkoMkuqWJtrbb729G-43" style="rounded=0;orthogonalLoop=1;jettySize=auto;html=1;exitX=0.5;exitY=0;exitDx=0;exitDy=0;entryX=0.5;entryY=1;entryDx=0;entryDy=0;endArrow=none;endFill=0;" parent="1" source="rW1OkoMkuqWJtrbb729G-44" target="rW1OkoMkuqWJtrbb729G-36" edge="1">
          <mxGeometry relative="1" as="geometry" />
        </mxCell>
        <mxCell id="rW1OkoMkuqWJtrbb729G-44" value="Vezeték név" style="ellipse;whiteSpace=wrap;html=1;" parent="1" vertex="1">
          <mxGeometry x="3750" y="520" width="120" height="80" as="geometry" />
        </mxCell>
        <mxCell id="rW1OkoMkuqWJtrbb729G-45" value="Kereszt név" style="ellipse;whiteSpace=wrap;html=1;" parent="1" vertex="1">
          <mxGeometry x="3885" y="520" width="120" height="80" as="geometry" />
        </mxCell>
        <mxCell id="rW1OkoMkuqWJtrbb729G-46" style="edgeStyle=orthogonalEdgeStyle;rounded=0;orthogonalLoop=1;jettySize=auto;html=1;exitX=0.5;exitY=0;exitDx=0;exitDy=0;entryX=0.5;entryY=1;entryDx=0;entryDy=0;endArrow=none;endFill=0;" parent="1" source="rW1OkoMkuqWJtrbb729G-47" target="rW1OkoMkuqWJtrbb729G-44" edge="1">
          <mxGeometry relative="1" as="geometry" />
        </mxCell>
        <mxCell id="rW1OkoMkuqWJtrbb729G-47" value="" style="whiteSpace=wrap;html=1;" parent="1" vertex="1">
          <mxGeometry x="3785" y="640" width="50" height="80" as="geometry" />
        </mxCell>
        <mxCell id="rW1OkoMkuqWJtrbb729G-48" style="edgeStyle=orthogonalEdgeStyle;rounded=0;orthogonalLoop=1;jettySize=auto;html=1;exitX=0.5;exitY=0;exitDx=0;exitDy=0;entryX=0.5;entryY=1;entryDx=0;entryDy=0;endArrow=none;endFill=0;" parent="1" source="rW1OkoMkuqWJtrbb729G-49" target="rW1OkoMkuqWJtrbb729G-45" edge="1">
          <mxGeometry relative="1" as="geometry" />
        </mxCell>
        <mxCell id="rW1OkoMkuqWJtrbb729G-49" value="" style="whiteSpace=wrap;html=1;" parent="1" vertex="1">
          <mxGeometry x="3920" y="640" width="50" height="80" as="geometry" />
        </mxCell>
        <mxCell id="rW1OkoMkuqWJtrbb729G-50" style="rounded=0;orthogonalLoop=1;jettySize=auto;html=1;exitX=0.5;exitY=0;exitDx=0;exitDy=0;entryX=0.5;entryY=1;entryDx=0;entryDy=0;endArrow=none;endFill=0;" parent="1" source="rW1OkoMkuqWJtrbb729G-52" target="rW1OkoMkuqWJtrbb729G-30" edge="1">
          <mxGeometry relative="1" as="geometry" />
        </mxCell>
        <mxCell id="rW1OkoMkuqWJtrbb729G-51" value="" style="group" parent="1" vertex="1" connectable="0">
          <mxGeometry x="3600" y="470" width="80" height="80" as="geometry" />
        </mxCell>
        <mxCell id="rW1OkoMkuqWJtrbb729G-58" value="" style="group" parent="rW1OkoMkuqWJtrbb729G-51" vertex="1" connectable="0">
          <mxGeometry x="-20" y="-70" width="80" height="80" as="geometry" />
        </mxCell>
        <mxCell id="rW1OkoMkuqWJtrbb729G-59" value="Osztályfőnök" style="rhombus;whiteSpace=wrap;html=1;" parent="rW1OkoMkuqWJtrbb729G-58" vertex="1">
          <mxGeometry width="80" height="80" as="geometry" />
        </mxCell>
        <mxCell id="rW1OkoMkuqWJtrbb729G-60" value="" style="endArrow=none;dashed=1;html=1;dashPattern=1 3;strokeWidth=2;rounded=0;exitX=0.874;exitY=0.618;exitDx=0;exitDy=0;exitPerimeter=0;entryX=0.111;entryY=0.609;entryDx=0;entryDy=0;entryPerimeter=0;elbow=vertical;" parent="rW1OkoMkuqWJtrbb729G-58" source="rW1OkoMkuqWJtrbb729G-59" target="rW1OkoMkuqWJtrbb729G-59" edge="1">
          <mxGeometry width="50" height="50" relative="1" as="geometry">
            <mxPoint x="-30" y="90" as="sourcePoint" />
            <mxPoint x="20" y="40" as="targetPoint" />
          </mxGeometry>
        </mxCell>
        <mxCell id="rW1OkoMkuqWJtrbb729G-61" style="rounded=0;orthogonalLoop=1;jettySize=auto;html=1;exitX=0.5;exitY=0;exitDx=0;exitDy=0;entryX=0.5;entryY=1;entryDx=0;entryDy=0;endArrow=none;endFill=0;" parent="1" source="rW1OkoMkuqWJtrbb729G-59" target="rW1OkoMkuqWJtrbb729G-30" edge="1">
          <mxGeometry relative="1" as="geometry" />
        </mxCell>
        <mxCell id="rW1OkoMkuqWJtrbb729G-62" style="edgeStyle=orthogonalEdgeStyle;rounded=0;orthogonalLoop=1;jettySize=auto;html=1;exitX=0.5;exitY=0;exitDx=0;exitDy=0;entryX=0.5;entryY=1;entryDx=0;entryDy=0;endArrow=none;endFill=0;" parent="1" source="rW1OkoMkuqWJtrbb729G-63" target="rW1OkoMkuqWJtrbb729G-64" edge="1">
          <mxGeometry relative="1" as="geometry" />
        </mxCell>
        <mxCell id="rW1OkoMkuqWJtrbb729G-63" value="" style="whiteSpace=wrap;html=1;" parent="1" vertex="1">
          <mxGeometry x="4015" y="520" width="50" height="80" as="geometry" />
        </mxCell>
        <mxCell id="rW1OkoMkuqWJtrbb729G-64" value="Osztály" style="ellipse;whiteSpace=wrap;html=1;" parent="1" vertex="1">
          <mxGeometry x="3980" y="400" width="120" height="80" as="geometry" />
        </mxCell>
        <mxCell id="rW1OkoMkuqWJtrbb729G-69" style="edgeStyle=orthogonalEdgeStyle;rounded=0;orthogonalLoop=1;jettySize=auto;html=1;exitX=0.5;exitY=1;exitDx=0;exitDy=0;entryX=0.133;entryY=0.653;entryDx=0;entryDy=0;entryPerimeter=0;dashed=1;" parent="1" source="rW1OkoMkuqWJtrbb729G-52" target="9Dg1G8Zponl_7m4OpEt4-3" edge="1">
          <mxGeometry relative="1" as="geometry">
            <mxPoint x="440" y="950" as="targetPoint" />
            <Array as="points">
              <mxPoint x="3740" y="840" />
              <mxPoint x="251" y="840" />
            </Array>
          </mxGeometry>
        </mxCell>
        <mxCell id="rW1OkoMkuqWJtrbb729G-52" value="Iskola_Id" style="rhombus;whiteSpace=wrap;html=1;" parent="1" vertex="1">
          <mxGeometry x="3700" y="400" width="80" height="80" as="geometry" />
        </mxCell>
        <mxCell id="rW1OkoMkuqWJtrbb729G-53" value="" style="endArrow=none;dashed=1;html=1;dashPattern=1 3;strokeWidth=2;rounded=0;exitX=0.874;exitY=0.618;exitDx=0;exitDy=0;exitPerimeter=0;entryX=0.111;entryY=0.609;entryDx=0;entryDy=0;entryPerimeter=0;" parent="1" source="rW1OkoMkuqWJtrbb729G-52" target="rW1OkoMkuqWJtrbb729G-52" edge="1">
          <mxGeometry width="50" height="50" relative="1" as="geometry">
            <mxPoint x="3550" y="490" as="sourcePoint" />
            <mxPoint x="3600" y="440" as="targetPoint" />
          </mxGeometry>
        </mxCell>
        <mxCell id="rW1OkoMkuqWJtrbb729G-65" style="edgeStyle=orthogonalEdgeStyle;rounded=0;orthogonalLoop=1;jettySize=auto;html=1;exitX=0.5;exitY=1;exitDx=0;exitDy=0;entryX=0.5;entryY=1;entryDx=0;entryDy=0;dashed=1;" parent="1" source="rW1OkoMkuqWJtrbb729G-59" target="lZ0-QJOGhHpyAZBgKFLS-4" edge="1">
          <mxGeometry relative="1" as="geometry">
            <Array as="points">
              <mxPoint x="3620" y="560" />
              <mxPoint x="3520" y="560" />
            </Array>
          </mxGeometry>
        </mxCell>
        <mxCell id="rW1OkoMkuqWJtrbb729G-66" style="edgeStyle=orthogonalEdgeStyle;rounded=0;orthogonalLoop=1;jettySize=auto;html=1;exitX=0.5;exitY=1;exitDx=0;exitDy=0;entryX=0.5;entryY=1;entryDx=0;entryDy=0;dashed=1;" parent="1" source="QG8uCllPr0kLrpnpBCak-1" target="9Dg1G8Zponl_7m4OpEt4-3" edge="1">
          <mxGeometry relative="1" as="geometry">
            <Array as="points">
              <mxPoint x="880" y="640" />
              <mxPoint x="280" y="640" />
            </Array>
          </mxGeometry>
        </mxCell>
        <mxCell id="rW1OkoMkuqWJtrbb729G-67" style="edgeStyle=orthogonalEdgeStyle;rounded=0;orthogonalLoop=1;jettySize=auto;html=1;exitX=0.5;exitY=1;exitDx=0;exitDy=0;dashed=1;entryX=0.375;entryY=0.88;entryDx=0;entryDy=0;entryPerimeter=0;" parent="1" source="_7UKjLEnaxNxy2S9yKzt-24" target="9Dg1G8Zponl_7m4OpEt4-3" edge="1">
          <mxGeometry relative="1" as="geometry">
            <mxPoint x="260" y="530" as="targetPoint" />
            <Array as="points">
              <mxPoint x="1600" y="760" />
              <mxPoint x="270" y="760" />
            </Array>
          </mxGeometry>
        </mxCell>
        <mxCell id="qB38ESyppmAsvI1517yx-1" style="rounded=0;orthogonalLoop=1;jettySize=auto;html=1;exitX=0.5;exitY=0;exitDx=0;exitDy=0;entryX=0.5;entryY=1;entryDx=0;entryDy=0;endArrow=none;endFill=0;" edge="1" parent="1" source="6NKEj8dn_rRQdAeNS91E-1" target="9Dg1G8Zponl_7m4OpEt4-1">
          <mxGeometry relative="1" as="geometry" />
        </mxCell>
        <mxCell id="6NKEj8dn_rRQdAeNS91E-1" value="Oktat" style="ellipse;shape=doubleEllipse;whiteSpace=wrap;html=1;" parent="1" vertex="1">
          <mxGeometry x="2340" y="280" width="120" height="80" as="geometry" />
        </mxCell>
        <mxCell id="6NKEj8dn_rRQdAeNS91E-14" style="rounded=0;orthogonalLoop=1;jettySize=auto;html=1;exitX=0.5;exitY=0;exitDx=0;exitDy=0;endArrow=none;endFill=0;entryX=0.5;entryY=1;entryDx=0;entryDy=0;" parent="1" source="6NKEj8dn_rRQdAeNS91E-2" target="6NKEj8dn_rRQdAeNS91E-1" edge="1">
          <mxGeometry relative="1" as="geometry">
            <mxPoint x="2400" y="360" as="targetPoint" />
          </mxGeometry>
        </mxCell>
        <mxCell id="6NKEj8dn_rRQdAeNS91E-2" value="Osztály" style="ellipse;whiteSpace=wrap;html=1;" parent="1" vertex="1">
          <mxGeometry x="2340" y="400" width="120" height="80" as="geometry" />
        </mxCell>
        <mxCell id="6NKEj8dn_rRQdAeNS91E-3" value="" style="group" parent="1" vertex="1" connectable="0">
          <mxGeometry x="2250" y="400" width="80" height="80" as="geometry" />
        </mxCell>
        <mxCell id="6NKEj8dn_rRQdAeNS91E-4" value="Iskola_Id" style="rhombus;whiteSpace=wrap;html=1;" parent="6NKEj8dn_rRQdAeNS91E-3" vertex="1">
          <mxGeometry width="80" height="80" as="geometry" />
        </mxCell>
        <mxCell id="6NKEj8dn_rRQdAeNS91E-5" value="" style="endArrow=none;dashed=1;html=1;dashPattern=1 3;strokeWidth=2;rounded=0;exitX=0.874;exitY=0.618;exitDx=0;exitDy=0;exitPerimeter=0;entryX=0.111;entryY=0.609;entryDx=0;entryDy=0;entryPerimeter=0;" parent="6NKEj8dn_rRQdAeNS91E-3" source="6NKEj8dn_rRQdAeNS91E-4" target="6NKEj8dn_rRQdAeNS91E-4" edge="1">
          <mxGeometry width="50" height="50" relative="1" as="geometry">
            <mxPoint x="-30" y="90" as="sourcePoint" />
            <mxPoint x="20" y="40" as="targetPoint" />
          </mxGeometry>
        </mxCell>
        <mxCell id="6NKEj8dn_rRQdAeNS91E-6" value="" style="group" parent="1" vertex="1" connectable="0">
          <mxGeometry x="2470" y="400" width="80" height="80" as="geometry" />
        </mxCell>
        <mxCell id="6NKEj8dn_rRQdAeNS91E-7" value="Tanar_id" style="rhombus;whiteSpace=wrap;html=1;" parent="6NKEj8dn_rRQdAeNS91E-6" vertex="1">
          <mxGeometry width="80" height="80" as="geometry" />
        </mxCell>
        <mxCell id="6NKEj8dn_rRQdAeNS91E-8" value="" style="endArrow=none;dashed=1;html=1;dashPattern=1 3;strokeWidth=2;rounded=0;exitX=0.874;exitY=0.618;exitDx=0;exitDy=0;exitPerimeter=0;entryX=0.111;entryY=0.609;entryDx=0;entryDy=0;entryPerimeter=0;" parent="6NKEj8dn_rRQdAeNS91E-6" source="6NKEj8dn_rRQdAeNS91E-7" target="6NKEj8dn_rRQdAeNS91E-7" edge="1">
          <mxGeometry width="50" height="50" relative="1" as="geometry">
            <mxPoint x="-30" y="90" as="sourcePoint" />
            <mxPoint x="20" y="40" as="targetPoint" />
          </mxGeometry>
        </mxCell>
        <mxCell id="6NKEj8dn_rRQdAeNS91E-12" style="edgeStyle=orthogonalEdgeStyle;rounded=0;orthogonalLoop=1;jettySize=auto;html=1;exitX=0.5;exitY=1;exitDx=0;exitDy=0;entryX=0.5;entryY=1;entryDx=0;entryDy=0;dashed=1;" parent="1" source="lZ0-QJOGhHpyAZBgKFLS-24" target="6NKEj8dn_rRQdAeNS91E-7" edge="1">
          <mxGeometry relative="1" as="geometry">
            <Array as="points">
              <mxPoint x="2601" y="520" />
              <mxPoint x="2510" y="520" />
            </Array>
          </mxGeometry>
        </mxCell>
        <mxCell id="6NKEj8dn_rRQdAeNS91E-13" style="rounded=0;orthogonalLoop=1;jettySize=auto;html=1;exitX=0.5;exitY=0;exitDx=0;exitDy=0;entryX=0.5;entryY=1;entryDx=0;entryDy=0;endArrow=none;endFill=0;" parent="1" source="6NKEj8dn_rRQdAeNS91E-4" target="6NKEj8dn_rRQdAeNS91E-1" edge="1">
          <mxGeometry relative="1" as="geometry" />
        </mxCell>
        <mxCell id="6NKEj8dn_rRQdAeNS91E-15" style="rounded=0;orthogonalLoop=1;jettySize=auto;html=1;exitX=0.5;exitY=0;exitDx=0;exitDy=0;endArrow=none;endFill=0;entryX=0.5;entryY=1;entryDx=0;entryDy=0;" parent="1" source="6NKEj8dn_rRQdAeNS91E-7" target="6NKEj8dn_rRQdAeNS91E-1" edge="1">
          <mxGeometry relative="1" as="geometry">
            <mxPoint x="2400" y="360" as="targetPoint" />
          </mxGeometry>
        </mxCell>
        <mxCell id="6NKEj8dn_rRQdAeNS91E-16" style="edgeStyle=orthogonalEdgeStyle;rounded=0;orthogonalLoop=1;jettySize=auto;html=1;exitX=0.5;exitY=1;exitDx=0;exitDy=0;entryX=0;entryY=1;entryDx=0;entryDy=0;dashed=1;" parent="1" source="6NKEj8dn_rRQdAeNS91E-4" target="9Dg1G8Zponl_7m4OpEt4-3" edge="1">
          <mxGeometry relative="1" as="geometry">
            <mxPoint x="1420" y="760" as="targetPoint" />
            <Array as="points">
              <mxPoint x="2290" y="800" />
              <mxPoint x="260" y="800" />
            </Array>
          </mxGeometry>
        </mxCell>
      </root>
    </mxGraphModel>
  </diagram>
</mxfile>
